<svg version="1.1" baseProfile="full" width="100%" height="100%" viewBox="0 0 10240 7680"  xmlns="http://www.w3.org/2000/svg" xmlns:xlink="http://www.w3.org/1999/xlink" xmlns:ev="http://www.w3.org/2001/xml-events" >
 <title>Expression Flattening (Mutation vs. GPU)</title>
<desc>Created by Causeway SVG engine - SharpPlot v3.03</desc>
<desc>Paint the paper =====</desc>
 <g fill="White">
  <rect x="0" y="0" width="10240" height="7680" />
 </g>
<desc>Border =====</desc>
<desc>Heading, subheading and footnotes =====</desc>
<desc>Heading</desc>
 <g fill="Navy" font-family="Times New Roman" font-size="250" text-anchor="middle" >
  <text x="5120" y="390" >Expression Flattening (Mutation vs. GPU)</text>
 </g>
<desc>3D Walls and edges =====</desc>
<desc>before 3D reduction</desc>
<desc>Gridlines on backplanes</desc>
 <path fill="none" stroke="Silver" stroke-width="2" stroke-linejoin="round" stroke-linecap="round"  d="M 621,5447 L 3323,3989 M 899,5546 L 3589,4054 M 1186,5647 L 3862,4120 M 1480,5751 L 4141,4189 M 1784,5858 L 4427,4258 M 2097,5968 L 4721,4330 M 2419,6082 L 5021,4404 M 2752,6199 L 5330,4479 M 3095,6320 L 5647,4556 M 3449,6445 L 5972,4636 M 3814,6574 L 6306,4717 M 4192,6707 L 6648,4801 M 4582,6845 L 7001,4887 M 4986,6987 L 7363,4976 M 5404,7135 L 7735,5067 M 5837,7288 L 8119,5160 M 6286,7446 L 8513,5257 " />
 <path fill="none" stroke="Silver" stroke-width="2" stroke-linejoin="round" stroke-linecap="round"  d="M 3323,3989 L 3374,556 M 3589,4054 L 3667,582 M 3862,4120 L 3968,609 M 4141,4189 L 4278,637 M 4427,4258 L 4595,665 M 4721,4330 L 4922,694 M 5021,4404 L 5258,725 M 5330,4479 L 5603,756 M 5647,4556 L 5959,787 M 5972,4636 L 6325,820 M 6306,4717 L 6702,854 M 6648,4801 L 7090,889 M 7001,4887 L 7491,925 M 7363,4976 L 7903,962 M 7735,5067 L 8329,1000 M 8119,5160 L 8769,1039 M 8513,5257 L 9223,1080 " />
 <path fill="none" stroke="Silver" stroke-width="2" stroke-linejoin="round" stroke-linecap="round"  d="M 621,5447 L 6286,7446 M 819,5340 L 6456,7279 M 1013,5236 L 6621,7116 M 1202,5134 L 6782,6958 M 1387,5034 L 6938,6805 M 1568,4936 L 7090,6656 M 1745,4840 L 7237,6511 M 1918,4747 L 7380,6370 M 2088,4655 L 7520,6233 M 2254,4566 L 7655,6100 M 2416,4478 L 7788,5970 M 2575,4392 L 7916,5843 M 2731,4308 L 8042,5720 M 2883,4226 L 8164,5600 M 3033,4145 L 8283,5482 M 3179,4066 L 8400,5368 M 3323,3989 L 8513,5257 " />
 <path fill="none" stroke="Silver" stroke-width="2" stroke-linejoin="round" stroke-linecap="round"  d="M 621,5447 L 359,1466 M 819,5340 L 584,1398 M 1013,5236 L 804,1332 M 1202,5134 L 1018,1267 M 1387,5034 L 1226,1204 M 1568,4936 L 1429,1143 M 1745,4840 L 1627,1083 M 1918,4747 L 1821,1025 M 2088,4655 L 2010,967 M 2254,4566 L 2194,912 M 2416,4478 L 2375,857 M 2575,4392 L 2551,804 M 2731,4308 L 2723,752 M 2883,4226 L 2891,701 M 3033,4145 L 3055,652 M 3179,4066 L 3216,603 M 3323,3989 L 3374,556 " />
 <path fill="none" stroke="Silver" stroke-width="2" stroke-linejoin="round" stroke-linecap="round"  d="M 621,5447 L 3323,3989 M 608,5249 L 3325,3814 M 595,5048 L 3328,3638 M 581,4844 L 3331,3460 M 568,4638 L 3333,3280 M 554,4429 L 3336,3098 M 540,4218 L 3339,2915 M 526,4004 L 3341,2729 M 512,3788 L 3344,2542 M 497,3569 L 3347,2353 M 483,3347 L 3350,2161 M 468,3122 L 3353,1968 M 453,2895 L 3356,1773 M 438,2664 L 3358,1575 M 423,2431 L 3361,1376 M 407,2194 L 3364,1174 M 391,1955 L 3367,970 M 376,1712 L 3370,764 M 359,1466 L 3374,556 " />
 <path fill="none" stroke="Silver" stroke-width="2" stroke-linejoin="round" stroke-linecap="round"  d="M 3323,3989 L 8513,5257 M 3325,3814 L 8548,5049 M 3328,3638 L 8584,4839 M 3331,3460 L 8620,4626 M 3333,3280 L 8657,4411 M 3336,3098 L 8694,4192 M 3339,2915 L 8732,3971 M 3341,2729 L 8770,3747 M 3344,2542 L 8808,3521 M 3347,2353 L 8847,3291 M 3350,2161 L 8887,3058 M 3353,1968 L 8927,2822 M 3356,1773 L 8968,2583 M 3358,1575 L 9009,2341 M 3361,1376 L 9051,2096 M 3364,1174 L 9093,1847 M 3367,970 L 9136,1595 M 3370,764 L 9179,1339 M 3374,556 L 9223,1080 " />
<desc>Axes overdraw grid and walls</desc>
 <g stroke="Black" stroke-width="8" fill="none" stroke-linejoin="round" stroke-linecap="round"  >
  <path d=" M 8513 5257 L 6286 7446 621 5447 359 1466" />
 </g>
 <g stroke="Black" stroke-width="6" fill="none" stroke-linejoin="round" stroke-linecap="round"  >
  <path d=" M 359 1466 L 3374 556 9223 1080 8513 5257" />
 </g>
 <g stroke="Black" stroke-width="2" fill="none" stroke-linejoin="round" stroke-linecap="round"  >
  <path d=" M 621 5447 L 3323 3989 8513 5257" />
 </g>
 <g stroke="Black" stroke-width="2" fill="none" stroke-linejoin="round" stroke-linecap="round"  >
  <path d=" M 3323 3989 L 3374 556" />
 </g>
 <path fill="none" stroke="Black" stroke-width="7" stroke-linejoin="round" stroke-linecap="round"  d="M 621,5447 L 601,5458 M 899,5546 L 880,5556 M 1186,5647 L 1166,5658 M 1480,5751 L 1461,5762 M 1784,5858 L 1765,5869 M 2097,5968 L 2078,5980 M 2419,6082 L 2400,6094 M 2752,6199 L 2733,6212 M 3095,6320 L 3076,6333 M 3449,6445 L 3430,6458 M 3814,6574 L 3796,6588 M 4192,6707 L 4173,6721 M 4582,6845 L 4564,6860 M 4986,6987 L 4968,7003 M 5404,7135 L 5387,7151 M 5837,7288 L 5820,7304 M 6286,7446 L 6269,7463 " />
 <path fill="none" stroke="Black" stroke-width="7" stroke-linejoin="round" stroke-linecap="round"  d="M 6286,7446 L 6321,7459 M 6456,7279 L 6491,7291 M 6621,7116 L 6657,7128 M 6782,6958 L 6817,6969 M 6938,6805 L 6972,6816 M 7090,6656 L 7124,6666 M 7237,6511 L 7271,6521 M 7380,6370 L 7414,6380 M 7520,6233 L 7553,6243 M 7655,6100 L 7689,6109 M 7788,5970 L 7820,5979 M 7916,5843 L 7949,5852 M 8042,5720 L 8074,5728 M 8164,5600 L 8196,5608 M 8283,5482 L 8315,5491 M 8400,5368 L 8431,5376 M 8513,5257 L 8544,5264 " />
 <path fill="none" stroke="Black" stroke-width="7" stroke-linejoin="round" stroke-linecap="round"  d="M 621,5447 L 599,5440 M 608,5249 L 586,5241 M 595,5048 L 573,5040 M 581,4844 L 559,4837 M 568,4638 L 546,4631 M 554,4429 L 532,4423 M 540,4218 L 518,4212 M 526,4004 L 504,3998 M 512,3788 L 490,3782 M 497,3569 L 475,3563 M 483,3347 L 460,3341 M 468,3122 L 445,3117 M 453,2895 L 430,2890 M 438,2664 L 415,2659 M 423,2431 L 400,2426 M 407,2194 L 384,2190 M 391,1955 L 368,1951 M 376,1712 L 352,1708 M 359,1466 L 336,1462 " />
<desc>XYZ Datum =====</desc>
 <g fill="Teal" font-family="Times New Roman" font-size="210" transform="translate(2863 6821) rotate(21)" text-anchor="middle" >
  <text>Branching Factor</text>
 </g>
 <g fill="Teal" font-family="Times New Roman" font-size="210" transform="translate(7949 6582) rotate(-47)" text-anchor="middle" >
  <text>AST Depth</text>
 </g>
 <g fill="Teal" font-family="Times New Roman" font-size="210" transform="translate(171 3484) rotate(-94)" text-anchor="middle" >
  <text>Speedup</text>
 </g>
 <g font-family="Times New Roman" font-size="150" transform="translate(547 5484) rotate(-28)" text-anchor="end" >
  <text y="53">0</text>
 </g>
 <g font-family="Times New Roman" font-size="150" transform="translate(825 5584) rotate(-29)" text-anchor="end" >
  <text y="53">2</text>
 </g>
 <g font-family="Times New Roman" font-size="150" transform="translate(1111 5687) rotate(-30)" text-anchor="end" >
  <text y="53">4</text>
 </g>
 <g font-family="Times New Roman" font-size="150" transform="translate(1406 5792) rotate(-31)" text-anchor="end" >
  <text y="53">6</text>
 </g>
 <g font-family="Times New Roman" font-size="150" transform="translate(1709 5901) rotate(-31)" text-anchor="end" >
  <text y="53">8</text>
 </g>
 <g font-family="Times New Roman" font-size="150" transform="translate(2022 6013) rotate(-32)" text-anchor="end" >
  <text y="53">10</text>
 </g>
 <g font-family="Times New Roman" font-size="150" transform="translate(2345 6129) rotate(-33)" text-anchor="end" >
  <text y="53">12</text>
 </g>
 <g font-family="Times New Roman" font-size="150" transform="translate(2677 6248) rotate(-34)" text-anchor="end" >
  <text y="53">14</text>
 </g>
 <g font-family="Times New Roman" font-size="150" transform="translate(3020 6371) rotate(-35)" text-anchor="end" >
  <text y="53">16</text>
 </g>
 <g font-family="Times New Roman" font-size="150" transform="translate(3374 6498) rotate(-36)" text-anchor="end" >
  <text y="53">18</text>
 </g>
 <g font-family="Times New Roman" font-size="150" transform="translate(3740 6629) rotate(-37)" text-anchor="end" >
  <text y="53">20</text>
 </g>
 <g font-family="Times New Roman" font-size="150" transform="translate(4118 6764) rotate(-38)" text-anchor="end" >
  <text y="53">22</text>
 </g>
 <g font-family="Times New Roman" font-size="150" transform="translate(4508 6904) rotate(-39)" text-anchor="end" >
  <text y="53">24</text>
 </g>
 <g font-family="Times New Roman" font-size="150" transform="translate(4913 7049) rotate(-40)" text-anchor="end" >
  <text y="53">26</text>
 </g>
 <g font-family="Times New Roman" font-size="150" transform="translate(5331 7199) rotate(-42)" text-anchor="end" >
  <text y="53">28</text>
 </g>
 <g font-family="Times New Roman" font-size="150" transform="translate(5764 7355) rotate(-43)" text-anchor="end" >
  <text y="53">30</text>
 </g>
 <g font-family="Times New Roman" font-size="150" transform="translate(6213 7516) rotate(-45)" text-anchor="end" >
  <text y="53">32</text>
 </g>
 <g font-family="Times New Roman" font-size="150" transform="translate(6361 7473) rotate(19)" >
  <text y="53">0</text>
 </g>
 <g font-family="Times New Roman" font-size="150" transform="translate(6531 7304) rotate(19)" >
  <text y="53">2</text>
 </g>
 <g font-family="Times New Roman" font-size="150" transform="translate(6695 7141) rotate(19)" >
  <text y="53">4</text>
 </g>
 <g font-family="Times New Roman" font-size="150" transform="translate(6855 6982) rotate(18)" >
  <text y="53">6</text>
 </g>
 <g font-family="Times New Roman" font-size="150" transform="translate(7011 6828) rotate(18)" >
  <text y="53">8</text>
 </g>
 <g font-family="Times New Roman" font-size="150" transform="translate(7162 6678) rotate(17)" >
  <text y="53">10</text>
 </g>
 <g font-family="Times New Roman" font-size="150" transform="translate(7308 6533) rotate(17)" >
  <text y="53">12</text>
 </g>
 <g font-family="Times New Roman" font-size="150" transform="translate(7451 6391) rotate(17)" >
  <text y="53">14</text>
 </g>
 <g font-family="Times New Roman" font-size="150" transform="translate(7590 6253) rotate(16)" >
  <text y="53">16</text>
 </g>
 <g font-family="Times New Roman" font-size="150" transform="translate(7725 6119) rotate(16)" >
  <text y="53">18</text>
 </g>
 <g font-family="Times New Roman" font-size="150" transform="translate(7857 5989) rotate(16)" >
  <text y="53">20</text>
 </g>
 <g font-family="Times New Roman" font-size="150" transform="translate(7985 5862) rotate(15)" >
  <text y="53">22</text>
 </g>
 <g font-family="Times New Roman" font-size="150" transform="translate(8110 5738) rotate(15)" >
  <text y="53">24</text>
 </g>
 <g font-family="Times New Roman" font-size="150" transform="translate(8232 5617) rotate(15)" >
  <text y="53">26</text>
 </g>
 <g font-family="Times New Roman" font-size="150" transform="translate(8350 5499) rotate(14)" >
  <text y="53">28</text>
 </g>
 <g font-family="Times New Roman" font-size="150" transform="translate(8466 5385) rotate(14)" >
  <text y="53">30</text>
 </g>
 <g font-family="Times New Roman" font-size="150" transform="translate(8579 5273) rotate(14)" >
  <text y="53">32</text>
 </g>
 <g font-family="Times New Roman" font-size="150" transform="translate(566 5470) rotate(14)" text-anchor="end" >
  <text>0</text>
 </g>
 <g font-family="Times New Roman" font-size="150" transform="translate(553 5272) rotate(14)" text-anchor="end" >
  <text>0.5</text>
 </g>
 <g font-family="Times New Roman" font-size="150" transform="translate(539 5072) rotate(14)" text-anchor="end" >
  <text>1</text>
 </g>
 <g font-family="Times New Roman" font-size="150" transform="translate(526 4869) rotate(14)" text-anchor="end" >
  <text>1.5</text>
 </g>
 <g font-family="Times New Roman" font-size="150" transform="translate(512 4664) rotate(14)" text-anchor="end" >
  <text>2</text>
 </g>
 <g font-family="Times New Roman" font-size="150" transform="translate(498 4457) rotate(14)" text-anchor="end" >
  <text>2.5</text>
 </g>
 <g font-family="Times New Roman" font-size="150" transform="translate(484 4247) rotate(14)" text-anchor="end" >
  <text>3</text>
 </g>
 <g font-family="Times New Roman" font-size="150" transform="translate(469 4034) rotate(14)" text-anchor="end" >
  <text>3.5</text>
 </g>
 <g font-family="Times New Roman" font-size="150" transform="translate(455 3819) rotate(14)" text-anchor="end" >
  <text>4</text>
 </g>
 <g font-family="Times New Roman" font-size="150" transform="translate(440 3601) rotate(14)" text-anchor="end" >
  <text>4.5</text>
 </g>
 <g font-family="Times New Roman" font-size="150" transform="translate(425 3380) rotate(14)" text-anchor="end" >
  <text>5</text>
 </g>
 <g font-family="Times New Roman" font-size="150" transform="translate(410 3157) rotate(14)" text-anchor="end" >
  <text>5.5</text>
 </g>
 <g font-family="Times New Roman" font-size="150" transform="translate(395 2931) rotate(14)" text-anchor="end" >
  <text>6</text>
 </g>
 <g font-family="Times New Roman" font-size="150" transform="translate(380 2701) rotate(14)" text-anchor="end" >
  <text>6.5</text>
 </g>
 <g font-family="Times New Roman" font-size="150" transform="translate(364 2469) rotate(14)" text-anchor="end" >
  <text>7</text>
 </g>
 <g font-family="Times New Roman" font-size="150" transform="translate(348 2234) rotate(14)" text-anchor="end" >
  <text>7.5</text>
 </g>
 <g font-family="Times New Roman" font-size="150" transform="translate(332 1996) rotate(14)" text-anchor="end" >
  <text>8</text>
 </g>
 <g font-family="Times New Roman" font-size="150" transform="translate(316 1755) rotate(14)" text-anchor="end" >
  <text>8.5</text>
 </g>
 <g font-family="Times New Roman" font-size="150" transform="translate(299 1510) rotate(14)" text-anchor="end" >
  <text>9</text>
 </g>
<desc>Start of Response Surface ==========</desc>
<desc>Line weight for the edges</desc>
 <g stroke="Navy" stroke-width="2" stroke-linejoin="round" stroke-linecap="round" fill="#BFBFDF">
  <path d="M 3383 4059 L 3518 4091 3589 4051 3455 4020 z "/>
  <path d="M 3312 4099 L 3446 4131 3518 4091 3383 4059 z "/>
  <path d="M 3518 4091 L 3653 4126 3724 4086 3589 4051 z "/>
  <path d="M 3239 4139 L 3374 4171 3446 4131 3312 4099 z "/>
  <path d="M 3446 4131 L 3582 4166 3653 4126 3518 4091 z "/>
  <path d="M 3653 4126 L 3791 4160 3861 4120 3724 4086 z "/>
  <path d="M 3166 4179 L 3300 4212 3374 4171 3239 4139 z "/>
  <path d="M 3374 4171 L 3510 4207 3582 4166 3446 4131 z "/>
  <path d="M 3582 4166 L 3720 4201 3791 4160 3653 4126 z "/>
  <path d="M 3791 4160 L 3930 4194 4000 4154 3861 4120 z "/>
  <path d="M 3091 4219 L 3227 4253 3300 4212 3166 4179 z "/>
  <path d="M 3300 4212 L 3437 4248 3510 4207 3374 4171 z "/>
  <path d="M 3510 4207 L 3648 4242 3720 4201 3582 4166 z "/>
  <path d="M 3720 4201 L 3859 4235 3930 4194 3791 4160 z "/>
  <path d="M 3930 4194 L 4071 4229 4140 4188 4000 4154 z "/>
  <path d="M 3017 4260 L 3152 4294 3227 4253 3091 4219 z "/>
  <path d="M 3227 4253 L 3363 4289 3437 4248 3300 4212 z "/>
  <path d="M 3437 4248 L 3575 4283 3648 4242 3510 4207 z "/>
  <path d="M 3648 4242 L 3787 4277 3859 4235 3720 4201 z "/>
  <path d="M 3859 4235 L 4000 4270 4071 4229 3930 4194 z "/>
  <path d="M 4071 4229 L 4213 4264 4283 4223 4140 4188 z "/>
  <path d="M 2941 4302 L 3076 4335 3152 4294 3017 4260 z "/>
  <path d="M 3152 4294 L 3289 4331 3363 4289 3227 4253 z "/>
  <path d="M 3363 4289 L 3502 4325 3575 4283 3437 4248 z "/>
  <path d="M 3575 4283 L 3715 4319 3787 4277 3648 4242 z "/>
  <path d="M 3787 4277 L 3929 4312 4000 4270 3859 4235 z "/>
  <path d="M 4000 4270 L 4143 4306 4213 4264 4071 4229 z "/>
  <path d="M 4213 4264 L 4357 4300 4427 4258 4283 4223 z "/>
  <path d="M 2864 4343 L 3000 4378 3076 4335 2941 4302 z "/>
  <path d="M 3076 4335 L 3214 4373 3289 4331 3152 4294 z "/>
  <path d="M 3289 4331 L 3428 4367 3502 4325 3363 4289 z "/>
  <path d="M 3502 4325 L 3642 4361 3715 4319 3575 4283 z "/>
  <path d="M 3715 4319 L 3857 4355 3929 4312 3787 4277 z "/>
  <path d="M 3929 4312 L 4072 4348 4143 4306 4000 4270 z "/>
  <path d="M 4143 4306 L 4287 4342 4357 4300 4213 4264 z "/>
  <path d="M 4357 4300 L 4503 4336 4572 4294 4427 4258 z "/>
  <path d="M 2787 4386 L 2923 4421 3000 4378 2864 4343 z "/>
  <path d="M 3000 4378 L 3138 4416 3214 4373 3076 4335 z "/>
  <path d="M 3214 4373 L 3353 4410 3428 4367 3289 4331 z "/>
  <path d="M 3428 4367 L 3568 4404 3642 4361 3502 4325 z "/>
  <path d="M 3642 4361 L 3784 4397 3857 4355 3715 4319 z "/>
  <path d="M 3857 4355 L 4000 4391 4072 4348 3929 4312 z "/>
  <path d="M 4072 4348 L 4217 4385 4287 4342 4143 4306 z "/>
  <path d="M 4287 4342 L 4434 4379 4503 4336 4357 4300 z "/>
  <path d="M 4503 4336 L 4651 4372 4720 4330 4572 4294 z "/>
  <path d="M 2709 4428 L 2845 4464 2923 4421 2787 4386 z "/>
  <path d="M 2923 4421 L 3070 3188 3138 4416 3000 4378 z "/>
  <path d="M 3138 4416 L 3277 4453 3353 4410 3214 4373 z "/>
  <path d="M 3353 4410 L 3493 4447 3568 4404 3428 4367 z "/>
  <path d="M 3568 4404 L 3710 4441 3784 4397 3642 4361 z "/>
  <path d="M 3784 4397 L 3927 4434 4000 4391 3857 4355 z "/>
  <path d="M 4000 4391 L 4145 4428 4217 4385 4072 4348 z "/>
  <path d="M 4217 4385 L 4363 4422 4434 4379 4287 4342 z "/>
  <path d="M 4434 4379 L 4582 4416 4651 4372 4503 4336 z "/>
  <path d="M 4651 4372 L 4801 4409 4870 4366 4720 4330 z "/>
  <path d="M 2630 4472 L 2767 4508 2845 4464 2709 4428 z "/>
  <path d="M 2845 4464 L 2990 3266 3070 3188 2923 4421 z "/>
  <path d="M 3070 3188 L 3200 4497 3277 4453 3138 4416 z "/>
  <path d="M 3277 4453 L 3418 4491 3493 4447 3353 4410 z "/>
  <path d="M 3493 4447 L 3636 4484 3710 4441 3568 4404 z "/>
  <path d="M 3710 4441 L 3854 4478 3927 4434 3784 4397 z "/>
  <path d="M 3927 4434 L 4073 4472 4145 4428 4000 4391 z "/>
  <path d="M 4145 4428 L 4292 4466 4363 4422 4217 4385 z "/>
  <path d="M 4363 4422 L 4512 4459 4582 4416 4434 4379 z "/>
  <path d="M 4582 4416 L 4732 4453 4801 4409 4651 4372 z "/>
  <path d="M 4801 4409 L 4953 4447 5021 4403 4870 4366 z "/>
  <path d="M 2551 4515 L 2687 4552 2767 4508 2630 4472 z "/>
  <path d="M 2767 4508 L 2908 3298 2990 3266 2845 4464 z "/>
  <path d="M 2990 3266 L 3123 4541 3200 4497 3070 3188 z "/>
  <path d="M 3200 4497 L 3342 4535 3418 4491 3277 4453 z "/>
  <path d="M 3418 4491 L 3561 4528 3636 4484 3493 4447 z "/>
  <path d="M 3636 4484 L 3780 4522 3854 4478 3710 4441 z "/>
  <path d="M 3854 4478 L 4000 4516 4073 4472 3927 4434 z "/>
  <path d="M 4073 4472 L 4220 4510 4292 4466 4145 4428 z "/>
  <path d="M 4292 4466 L 4441 4504 4512 4459 4363 4422 z "/>
  <path d="M 4512 4459 L 4663 4497 4732 4453 4582 4416 z "/>
  <path d="M 4732 4453 L 4884 4491 4953 4447 4801 4409 z "/>
  <path d="M 4953 4447 L 5107 4485 5174 4441 5021 4403 z "/>
  <path d="M 2470 4559 L 2607 4597 2687 4552 2551 4515 z "/>
  <path d="M 2687 4552 L 2826 3245 2908 3298 2767 4508 z "/>
  <path d="M 2908 3298 L 3045 4585 3123 4541 2990 3266 z "/>
  <path d="M 3123 4541 L 3265 4579 3342 4535 3200 4497 z "/>
  <path d="M 3342 4535 L 3485 4573 3561 4528 3418 4491 z "/>
  <path d="M 3561 4528 L 3705 4567 3780 4522 3636 4484 z "/>
  <path d="M 3780 4522 L 3926 4561 4000 4516 3854 4478 z "/>
  <path d="M 4000 4516 L 4148 4554 4220 4510 4073 4472 z "/>
  <path d="M 4220 4510 L 4370 4548 4441 4504 4292 4466 z "/>
  <path d="M 4441 4504 L 4592 4542 4663 4497 4512 4459 z "/>
  <path d="M 4663 4497 L 4815 4536 4884 4491 4732 4453 z "/>
  <path d="M 4884 4491 L 5039 4530 5107 4485 4953 4447 z "/>
  <path d="M 5107 4485 L 5262 4523 5330 4479 5174 4441 z "/>
  <path d="M 2389 4604 L 2526 4642 2607 4597 2470 4559 z "/>
  <path d="M 2607 4597 L 2743 3318 2826 3245 2687 4552 z "/>
  <path d="M 2826 3245 L 2966 4630 3045 4585 2908 3298 z "/>
  <path d="M 3045 4585 L 3187 4624 3265 4579 3123 4541 z "/>
  <path d="M 3265 4579 L 3408 4618 3485 4573 3342 4535 z "/>
  <path d="M 3485 4573 L 3630 4612 3705 4567 3561 4528 z "/>
  <path d="M 3705 4567 L 3852 4606 3926 4561 3780 4522 z "/>
  <path d="M 3926 4561 L 4074 4600 4148 4554 4000 4516 z "/>
  <path d="M 4148 4554 L 4297 4593 4370 4548 4220 4510 z "/>
  <path d="M 4370 4548 L 4521 4587 4592 4542 4441 4504 z "/>
  <path d="M 4592 4542 L 4745 4581 4815 4536 4663 4497 z "/>
  <path d="M 4815 4536 L 4970 4575 5039 4530 4884 4491 z "/>
  <path d="M 5039 4530 L 5195 4568 5262 4523 5107 4485 z "/>
  <path d="M 5262 4523 L 5420 4562 5487 4517 5330 4479 z "/>
  <path d="M 2306 4649 L 2444 4687 2526 4642 2389 4604 z "/>
  <path d="M 2526 4642 L 2660 3525 2743 3318 2607 4597 z "/>
  <path d="M 2743 3318 L 2886 4676 2966 4630 2826 3245 z "/>
  <path d="M 2966 4630 L 3108 4670 3187 4624 3045 4585 z "/>
  <path d="M 3187 4624 L 3330 4664 3408 4618 3265 4579 z "/>
  <path d="M 3408 4618 L 3553 4658 3630 4612 3485 4573 z "/>
  <path d="M 3630 4612 L 3776 4651 3852 4606 3705 4567 z "/>
  <path d="M 3852 4606 L 4000 4645 4074 4600 3926 4561 z "/>
  <path d="M 4074 4600 L 4224 4639 4297 4593 4148 4554 z "/>
  <path d="M 4297 4593 L 4449 4633 4521 4587 4370 4548 z "/>
  <path d="M 4521 4587 L 4674 4627 4745 4581 4592 4542 z "/>
  <path d="M 4745 4581 L 4900 4620 4970 4575 4815 4536 z "/>
  <path d="M 4970 4575 L 5126 4614 5195 4568 5039 4530 z "/>
  <path d="M 5195 4568 L 5353 4608 5420 4562 5262 4523 z "/>
  <path d="M 5420 4562 L 5580 4602 5646 4556 5487 4517 z "/>
  <path d="M 2223 4694 L 2361 4733 2444 4687 2306 4649 z "/>
  <path d="M 2444 4687 L 2576 3728 2660 3525 2526 4642 z "/>
  <path d="M 2660 3525 L 2805 4722 2886 4676 2743 3318 z "/>
  <path d="M 2886 4676 L 3028 4716 3108 4670 2966 4630 z "/>
  <path d="M 3108 4670 L 3252 4710 3330 4664 3187 4624 z "/>
  <path d="M 3330 4664 L 3476 4704 3553 4658 3408 4618 z "/>
  <path d="M 3553 4658 L 3700 4698 3776 4651 3630 4612 z "/>
  <path d="M 3776 4651 L 3925 4691 4000 4645 3852 4606 z "/>
  <path d="M 4000 4645 L 4150 4685 4224 4639 4074 4600 z "/>
  <path d="M 4224 4639 L 4376 4679 4449 4633 4297 4593 z "/>
  <path d="M 4449 4633 L 4603 4673 4674 4627 4521 4587 z "/>
  <path d="M 4674 4627 L 4830 4667 4900 4620 4745 4581 z "/>
  <path d="M 4900 4620 L 5057 4660 5126 4614 4970 4575 z "/>
  <path d="M 5126 4614 L 5285 4654 5353 4608 5195 4568 z "/>
  <path d="M 5353 4608 L 5513 4648 5580 4602 5420 4562 z "/>
  <path d="M 5580 4602 L 5742 4642 5808 4595 5646 4556 z "/>
  <path d="M 2139 4740 L 2277 4780 2361 4733 2223 4694 z "/>
  <path d="M 2361 4733 L 2493 4058 2576 3728 2444 4687 z "/>
  <path d="M 2576 3728 L 2724 4769 2805 4722 2660 3525 z "/>
  <path d="M 2805 4722 L 2948 4763 3028 4716 2886 4676 z "/>
  <path d="M 3028 4716 L 3172 4756 3252 4710 3108 4670 z "/>
  <path d="M 3252 4710 L 3397 4750 3476 4704 3330 4664 z "/>
  <path d="M 3476 4704 L 3623 4744 3700 4698 3553 4658 z "/>
  <path d="M 3700 4698 L 3849 4738 3925 4691 3776 4651 z "/>
  <path d="M 3925 4691 L 4076 4732 4150 4685 4000 4645 z "/>
  <path d="M 4150 4685 L 4303 4726 4376 4679 4224 4639 z "/>
  <path d="M 4376 4679 L 4530 4720 4603 4673 4449 4633 z "/>
  <path d="M 4603 4673 L 4758 4713 4830 4667 4674 4627 z "/>
  <path d="M 4830 4667 L 4987 4707 5057 4660 4900 4620 z "/>
  <path d="M 5057 4660 L 5216 4701 5285 4654 5126 4614 z "/>
  <path d="M 5285 4654 L 5445 4695 5513 4648 5353 4608 z "/>
  <path d="M 5513 4648 L 5676 4688 5742 4642 5580 4602 z "/>
  <path d="M 5742 4642 L 5906 4682 5971 4635 5808 4595 z "/>
  <path d="M 2054 4787 L 2192 4827 2277 4780 2139 4740 z "/>
  <path d="M 2277 4780 L 2411 4367 2493 4058 2361 4733 z "/>
  <path d="M 2493 4058 L 2641 4816 2724 4769 2576 3728 z "/>
  <path d="M 2724 4769 L 2866 4810 2948 4763 2805 4722 z "/>
  <path d="M 2948 4763 L 3092 4804 3172 4756 3028 4716 z "/>
  <path d="M 3172 4756 L 3318 4797 3397 4750 3252 4710 z "/>
  <path d="M 3397 4750 L 3545 4791 3623 4744 3476 4704 z "/>
  <path d="M 3623 4744 L 3772 4785 3849 4738 3700 4698 z "/>
  <path d="M 3849 4738 L 4000 4779 4076 4732 3925 4691 z "/>
  <path d="M 4076 4732 L 4228 4773 4303 4726 4150 4685 z "/>
  <path d="M 4303 4726 L 4457 4767 4530 4720 4376 4679 z "/>
  <path d="M 4530 4720 L 4686 4761 4758 4713 4603 4673 z "/>
  <path d="M 4758 4713 L 4916 4754 4987 4707 4830 4667 z "/>
  <path d="M 4987 4707 L 5146 4748 5216 4701 5057 4660 z "/>
  <path d="M 5216 4701 L 5377 4742 5445 4695 5285 4654 z "/>
  <path d="M 5445 4695 L 5608 4736 5676 4688 5513 4648 z "/>
  <path d="M 5676 4688 L 5840 4729 5906 4682 5742 4642 z "/>
  <path d="M 5906 4682 L 6072 4723 6137 4676 5971 4635 z "/>
  <path d="M 1968 4834 L 2106 4874 2192 4827 2054 4787 z "/>
  <path d="M 2192 4827 L 2327 4550 2411 4367 2277 4780 z "/>
  <path d="M 2411 4367 L 2547 3450 2641 4816 2493 4058 z "/>
  <path d="M 2641 4816 L 2784 4857 2866 4810 2724 4769 z "/>
  <path d="M 2866 4810 L 3011 4851 3092 4804 2948 4763 z "/>
  <path d="M 3092 4804 L 3238 4845 3318 4797 3172 4756 z "/>
  <path d="M 3318 4797 L 3466 4839 3545 4791 3397 4750 z "/>
  <path d="M 3545 4791 L 3695 4833 3772 4785 3623 4744 z "/>
  <path d="M 3772 4785 L 3924 4827 4000 4779 3849 4738 z "/>
  <path d="M 4000 4779 L 4153 4821 4228 4773 4076 4732 z "/>
  <path d="M 4228 4773 L 4383 4814 4457 4767 4303 4726 z "/>
  <path d="M 4457 4767 L 4614 4808 4686 4761 4530 4720 z "/>
  <path d="M 4686 4761 L 4844 4802 4916 4754 4758 4713 z "/>
  <path d="M 4916 4754 L 5076 4796 5146 4748 4987 4707 z "/>
  <path d="M 5146 4748 L 5308 4790 5377 4742 5216 4701 z "/>
  <path d="M 5377 4742 L 5540 4783 5608 4736 5445 4695 z "/>
  <path d="M 5608 4736 L 5773 4777 5840 4729 5676 4688 z "/>
  <path d="M 5840 4729 L 6007 4771 6072 4723 5906 4682 z "/>
  <path d="M 6072 4723 L 6241 4765 6305 4717 6137 4676 z "/>
  <path d="M 1881 4881 L 2020 4922 2106 4874 1968 4834 z "/>
  <path d="M 2106 4874 L 2243 4721 2327 4550 2192 4827 z "/>
  <path d="M 2327 4550 L 2458 3386 2547 3450 2411 4367 z "/>
  <path d="M 2547 3450 L 2701 4905 2784 4857 2641 4816 z "/>
  <path d="M 2784 4857 L 2929 4899 3011 4851 2866 4810 z "/>
  <path d="M 3011 4851 L 3158 4893 3238 4845 3092 4804 z "/>
  <path d="M 3238 4845 L 3387 4887 3466 4839 3318 4797 z "/>
  <path d="M 3466 4839 L 3616 4881 3695 4833 3545 4791 z "/>
  <path d="M 3695 4833 L 3846 4875 3924 4827 3772 4785 z "/>
  <path d="M 3924 4827 L 4077 4869 4153 4821 4000 4779 z "/>
  <path d="M 4153 4821 L 4308 4863 4383 4814 4228 4773 z "/>
  <path d="M 4383 4814 L 4540 4857 4614 4808 4457 4767 z "/>
  <path d="M 4614 4808 L 4772 4850 4844 4802 4686 4761 z "/>
  <path d="M 4844 4802 L 5005 4844 5076 4796 4916 4754 z "/>
  <path d="M 5076 4796 L 5238 4838 5308 4790 5146 4748 z "/>
  <path d="M 5308 4790 L 5472 4832 5540 4783 5377 4742 z "/>
  <path d="M 5540 4783 L 5706 4826 5773 4777 5608 4736 z "/>
  <path d="M 5773 4777 L 5941 4819 6007 4771 5840 4729 z "/>
  <path d="M 6007 4771 L 6176 4813 6241 4765 6072 4723 z "/>
  <path d="M 6241 4765 L 6412 4807 6475 4758 6305 4717 z "/>
  <path d="M 1793 4929 L 1932 4971 2020 4922 1881 4881 z "/>
  <path d="M 2020 4922 L 2158 4873 2243 4721 2106 4874 z "/>
  <path d="M 2243 4721 L 2368 3387 2458 3386 2327 4550 z "/>
  <path d="M 2458 3386 L 2617 4954 2701 4905 2547 3450 z "/>
  <path d="M 2701 4905 L 2846 4948 2929 4899 2784 4857 z "/>
  <path d="M 2929 4899 L 3076 4942 3158 4893 3011 4851 z "/>
  <path d="M 3158 4893 L 3306 4936 3387 4887 3238 4845 z "/>
  <path d="M 3387 4887 L 3537 4930 3616 4881 3466 4839 z "/>
  <path d="M 3616 4881 L 3768 4924 3846 4875 3695 4833 z "/>
  <path d="M 3846 4875 L 4000 4918 4077 4869 3924 4827 z "/>
  <path d="M 4077 4869 L 4233 4912 4308 4863 4153 4821 z "/>
  <path d="M 4308 4863 L 4465 4905 4540 4857 4383 4814 z "/>
  <path d="M 4540 4857 L 4699 4899 4772 4850 4614 4808 z "/>
  <path d="M 4772 4850 L 4933 4893 5005 4844 4844 4802 z "/>
  <path d="M 5005 4844 L 5167 4887 5238 4838 5076 4796 z "/>
  <path d="M 5238 4838 L 5402 4881 5472 4832 5308 4790 z "/>
  <path d="M 5472 4832 L 5638 4875 5706 4826 5540 4783 z "/>
  <path d="M 5706 4826 L 5874 4868 5941 4819 5773 4777 z "/>
  <path d="M 5941 4819 L 6110 4862 6176 4813 6007 4771 z "/>
  <path d="M 6176 4813 L 6347 4856 6412 4807 6241 4765 z "/>
  <path d="M 6412 4807 L 6585 4850 6648 4801 6475 4758 z "/>
  <path d="M 1705 4978 L 1843 5020 1932 4971 1793 4929 z "/>
  <path d="M 1932 4971 L 2071 4947 2158 4873 2020 4922 z "/>
  <path d="M 2158 4873 L 2283 3761 2368 3387 2243 4721 z "/>
  <path d="M 2368 3387 L 2532 5003 2617 4954 2458 3386 z "/>
  <path d="M 2617 4954 L 2762 4997 2846 4948 2701 4905 z "/>
  <path d="M 2846 4948 L 2993 4991 3076 4942 2929 4899 z "/>
  <path d="M 3076 4942 L 3225 4985 3306 4936 3158 4893 z "/>
  <path d="M 3306 4936 L 3457 4979 3537 4930 3387 4887 z "/>
  <path d="M 3537 4930 L 3689 4973 3768 4924 3616 4881 z "/>
  <path d="M 3768 4924 L 3922 4967 4000 4918 3846 4875 z "/>
  <path d="M 4000 4918 L 4156 4961 4233 4912 4077 4869 z "/>
  <path d="M 4233 4912 L 4390 4955 4465 4905 4308 4863 z "/>
  <path d="M 4465 4905 L 4625 4949 4699 4899 4540 4857 z "/>
  <path d="M 4699 4899 L 4860 4943 4933 4893 4772 4850 z "/>
  <path d="M 4933 4893 L 5096 4936 5167 4887 5005 4844 z "/>
  <path d="M 5167 4887 L 5332 4930 5402 4881 5238 4838 z "/>
  <path d="M 5402 4881 L 5569 4924 5638 4875 5472 4832 z "/>
  <path d="M 5638 4875 L 5806 4918 5874 4868 5706 4826 z "/>
  <path d="M 5874 4868 L 6044 4912 6110 4862 5941 4819 z "/>
  <path d="M 6110 4862 L 6282 4905 6347 4856 6176 4813 z "/>
  <path d="M 6347 4856 L 6521 4899 6585 4850 6412 4807 z "/>
  <path d="M 6585 4850 L 6760 4893 6823 4843 6648 4801 z "/>
  <path d="M 1615 5027 L 1754 5070 1843 5020 1705 4978 z "/>
  <path d="M 1843 5020 L 1983 5032 2071 4947 1932 4971 z "/>
  <path d="M 2071 4947 L 2200 4240 2283 3761 2158 4873 z "/>
  <path d="M 2283 3761 L 2428 3383 2532 5003 2368 3387 z "/>
  <path d="M 2532 5003 L 2677 5047 2762 4997 2617 4954 z "/>
  <path d="M 2762 4997 L 2910 5041 2993 4991 2846 4948 z "/>
  <path d="M 2993 4991 L 3142 5035 3225 4985 3076 4942 z "/>
  <path d="M 3225 4985 L 3376 5029 3457 4979 3306 4936 z "/>
  <path d="M 3457 4979 L 3609 5023 3689 4973 3537 4930 z "/>
  <path d="M 3689 4973 L 3844 5017 3922 4967 3768 4924 z "/>
  <path d="M 3922 4967 L 4079 5011 4156 4961 4000 4918 z "/>
  <path d="M 4156 4961 L 4314 5005 4390 4955 4233 4912 z "/>
  <path d="M 4390 4955 L 4550 4999 4625 4949 4465 4905 z "/>
  <path d="M 4625 4949 L 4786 4993 4860 4943 4699 4899 z "/>
  <path d="M 4860 4943 L 5023 4986 5096 4936 4933 4893 z "/>
  <path d="M 5096 4936 L 5261 4980 5332 4930 5167 4887 z "/>
  <path d="M 5332 4930 L 5499 4974 5569 4924 5402 4881 z "/>
  <path d="M 5569 4924 L 5737 4968 5806 4918 5638 4875 z "/>
  <path d="M 5806 4918 L 5976 4962 6044 4912 5874 4868 z "/>
  <path d="M 6044 4912 L 6216 4956 6282 4905 6110 4862 z "/>
  <path d="M 6282 4905 L 6456 4949 6521 4899 6347 4856 z "/>
  <path d="M 6521 4899 L 6697 4943 6760 4893 6585 4850 z "/>
  <path d="M 6760 4893 L 6938 4937 7000 4887 6823 4843 z "/>
  <path d="M 1524 5077 L 1663 5121 1754 5070 1615 5027 z "/>
  <path d="M 1754 5070 L 1894 5101 1983 5032 1843 5020 z "/>
  <path d="M 1983 5032 L 2118 4721 2200 4240 2071 4947 z "/>
  <path d="M 2200 4240 L 2335 3306 2428 3383 2283 3761 z "/>
  <path d="M 2428 3383 L 2592 5097 2677 5047 2532 5003 z "/>
  <path d="M 2677 5047 L 2825 5091 2910 5041 2762 4997 z "/>
  <path d="M 2910 5041 L 3059 5085 3142 5035 2993 4991 z "/>
  <path d="M 3142 5035 L 3294 5079 3376 5029 3225 4985 z "/>
  <path d="M 3376 5029 L 3529 5073 3609 5023 3457 4979 z "/>
  <path d="M 3609 5023 L 3764 5067 3844 5017 3689 4973 z "/>
  <path d="M 3844 5017 L 4000 5061 4079 5011 3922 4967 z "/>
  <path d="M 4079 5011 L 4237 5055 4314 5005 4156 4961 z "/>
  <path d="M 4314 5005 L 4474 5049 4550 4999 4390 4955 z "/>
  <path d="M 4550 4999 L 4712 5043 4786 4993 4625 4949 z "/>
  <path d="M 4786 4993 L 4950 5037 5023 4986 4860 4943 z "/>
  <path d="M 5023 4986 L 5189 5031 5261 4980 5096 4936 z "/>
  <path d="M 5261 4980 L 5428 5025 5499 4974 5332 4930 z "/>
  <path d="M 5499 4974 L 5668 5019 5737 4968 5569 4924 z "/>
  <path d="M 5737 4968 L 5908 5012 5976 4962 5806 4918 z "/>
  <path d="M 5976 4962 L 6149 5006 6216 4956 6044 4912 z "/>
  <path d="M 6216 4956 L 6391 5000 6456 4949 6282 4905 z "/>
  <path d="M 6456 4949 L 6633 4994 6697 4943 6521 4899 z "/>
  <path d="M 6697 4943 L 6876 4988 6938 4937 6760 4893 z "/>
  <path d="M 6938 4937 L 7119 4981 7180 4931 7000 4887 z "/>
  <path d="M 1432 5127 L 1571 5171 1663 5121 1524 5077 z "/>
  <path d="M 1663 5121 L 1804 5159 1894 5101 1754 5070 z "/>
  <path d="M 1894 5101 L 2032 4966 2118 4721 1983 5032 z "/>
  <path d="M 2118 4721 L 2248 3732 2335 3306 2200 4240 z "/>
  <path d="M 2335 3306 L 2489 3412 2592 5097 2428 3383 z "/>
  <path d="M 2592 5097 L 2740 5142 2825 5091 2677 5047 z "/>
  <path d="M 2825 5091 L 2975 5136 3059 5085 2910 5041 z "/>
  <path d="M 3059 5085 L 3211 5130 3294 5079 3142 5035 z "/>
  <path d="M 3294 5079 L 3447 5124 3529 5073 3376 5029 z "/>
  <path d="M 3529 5073 L 3684 5118 3764 5067 3609 5023 z "/>
  <path d="M 3764 5067 L 3921 5112 4000 5061 3844 5017 z "/>
  <path d="M 4000 5061 L 4159 5106 4237 5055 4079 5011 z "/>
  <path d="M 4237 5055 L 4397 5100 4474 5049 4314 5005 z "/>
  <path d="M 4474 5049 L 4636 5094 4712 5043 4550 4999 z "/>
  <path d="M 4712 5043 L 4876 5088 4950 5037 4786 4993 z "/>
  <path d="M 4950 5037 L 5116 5082 5189 5031 5023 4986 z "/>
  <path d="M 5189 5031 L 5357 5076 5428 5025 5261 4980 z "/>
  <path d="M 5428 5025 L 5598 5070 5668 5019 5499 4974 z "/>
  <path d="M 5668 5019 L 5840 5064 5908 5012 5737 4968 z "/>
  <path d="M 5908 5012 L 6082 5058 6149 5006 5976 4962 z "/>
  <path d="M 6149 5006 L 6325 5051 6391 5000 6216 4956 z "/>
  <path d="M 6391 5000 L 6568 5045 6633 4994 6456 4949 z "/>
  <path d="M 6633 4994 L 6812 5039 6876 4988 6697 4943 z "/>
  <path d="M 6876 4988 L 7057 5033 7119 4981 6938 4937 z "/>
  <path d="M 7119 4981 L 7302 5027 7363 4975 7180 4931 z "/>
  <path d="M 1339 5178 L 1478 5222 1571 5171 1432 5127 z "/>
  <path d="M 1571 5171 L 1712 5214 1804 5159 1663 5121 z "/>
  <path d="M 1804 5159 L 1944 5119 2032 4966 1894 5101 z "/>
  <path d="M 2032 4966 L 2168 4493 2248 3732 2118 4721 z "/>
  <path d="M 2248 3732 L 2395 3356 2489 3412 2335 3306 z "/>
  <path d="M 2489 3412 L 2653 5194 2740 5142 2592 5097 z "/>
  <path d="M 2740 5142 L 2889 5188 2975 5136 2825 5091 z "/>
  <path d="M 2975 5136 L 3127 5182 3211 5130 3059 5085 z "/>
  <path d="M 3211 5130 L 3364 5176 3447 5124 3294 5079 z "/>
  <path d="M 3447 5124 L 3602 5170 3684 5118 3529 5073 z "/>
  <path d="M 3684 5118 L 3841 5164 3921 5112 3764 5067 z "/>
  <path d="M 3921 5112 L 4080 5158 4159 5106 4000 5061 z "/>
  <path d="M 4159 5106 L 4320 5152 4397 5100 4237 5055 z "/>
  <path d="M 4397 5100 L 4560 5146 4636 5094 4474 5049 z "/>
  <path d="M 4636 5094 L 4801 5140 4876 5088 4712 5043 z "/>
  <path d="M 4876 5088 L 5042 5134 5116 5082 4950 5037 z "/>
  <path d="M 5116 5082 L 5284 5128 5357 5076 5189 5031 z "/>
  <path d="M 5357 5076 L 5527 5122 5598 5070 5428 5025 z "/>
  <path d="M 5598 5070 L 5770 5116 5840 5064 5668 5019 z "/>
  <path d="M 5840 5064 L 6014 5109 6082 5058 5908 5012 z "/>
  <path d="M 6082 5058 L 6258 5103 6325 5051 6149 5006 z "/>
  <path d="M 6325 5051 L 6503 5097 6568 5045 6391 5000 z "/>
  <path d="M 6568 5045 L 6748 5091 6812 5039 6633 4994 z "/>
  <path d="M 6812 5039 L 6994 5085 7057 5033 6876 4988 z "/>
  <path d="M 7057 5033 L 7240 5079 7302 5027 7119 4981 z "/>
  <path d="M 7302 5027 L 7487 5072 7547 5020 7363 4975 z "/>
  <path d="M 1245 5229 L 1385 5275 1478 5222 1339 5178 z "/>
  <path d="M 1478 5222 L 1620 5267 1712 5214 1571 5171 z "/>
  <path d="M 1712 5214 L 1854 5227 1944 5119 1804 5159 z "/>
  <path d="M 1944 5119 L 2085 4959 2168 4493 2032 4966 z "/>
  <path d="M 2168 4493 L 2305 3656 2395 3356 2248 3732 z "/>
  <path d="M 2395 3356 L 2553 3471 2653 5194 2489 3412 z "/>
  <path d="M 2653 5194 L 2803 5240 2889 5188 2740 5142 z "/>
  <path d="M 2889 5188 L 3042 5234 3127 5182 2975 5136 z "/>
  <path d="M 3127 5182 L 3280 5228 3364 5176 3211 5130 z "/>
  <path d="M 3364 5176 L 3520 5222 3602 5170 3447 5124 z "/>
  <path d="M 3602 5170 L 3760 5216 3841 5164 3684 5118 z "/>
  <path d="M 3841 5164 L 4000 5210 4080 5158 3921 5112 z "/>
  <path d="M 4080 5158 L 4241 5204 4320 5152 4159 5106 z "/>
  <path d="M 4320 5152 L 4483 5198 4560 5146 4397 5100 z "/>
  <path d="M 4560 5146 L 4725 5192 4801 5140 4636 5094 z "/>
  <path d="M 4801 5140 L 4968 5186 5042 5134 4876 5088 z "/>
  <path d="M 5042 5134 L 5211 5180 5284 5128 5116 5082 z "/>
  <path d="M 5284 5128 L 5455 5174 5527 5122 5357 5076 z "/>
  <path d="M 5527 5122 L 5700 5168 5770 5116 5598 5070 z "/>
  <path d="M 5770 5116 L 5945 5162 6014 5109 5840 5064 z "/>
  <path d="M 6014 5109 L 6190 5156 6258 5103 6082 5058 z "/>
  <path d="M 6258 5103 L 6436 5150 6503 5097 6325 5051 z "/>
  <path d="M 6503 5097 L 6683 5144 6748 5091 6568 5045 z "/>
  <path d="M 6748 5091 L 6930 5137 6994 5085 6812 5039 z "/>
  <path d="M 6994 5085 L 7178 5131 7240 5079 7057 5033 z "/>
  <path d="M 7240 5079 L 7427 5125 7487 5072 7302 5027 z "/>
  <path d="M 7487 5072 L 7676 5119 7735 5066 7547 5020 z "/>
  <path d="M 1150 5281 L 1290 5328 1385 5275 1245 5229 z "/>
  <path d="M 1385 5275 L 1526 5320 1620 5267 1478 5222 z "/>
  <path d="M 1620 5267 L 1763 5308 1854 5227 1712 5214 z "/>
  <path d="M 1854 5227 L 1998 5210 2085 4959 1944 5119 z "/>
  <path d="M 2085 4959 L 2226 4567 2305 3656 2168 4493 z "/>
  <path d="M 2305 3656 L 2458 3389 2553 3471 2395 3356 z "/>
  <path d="M 2553 3471 L 2716 5293 2803 5240 2653 5194 z "/>
  <path d="M 2803 5240 L 2956 5287 3042 5234 2889 5188 z "/>
  <path d="M 3042 5234 L 3196 5281 3280 5228 3127 5182 z "/>
  <path d="M 3280 5228 L 3436 5275 3520 5222 3364 5176 z "/>
  <path d="M 3520 5222 L 3678 5269 3760 5216 3602 5170 z "/>
  <path d="M 3760 5216 L 3920 5263 4000 5210 3841 5164 z "/>
  <path d="M 4000 5210 L 4162 5257 4241 5204 4080 5158 z "/>
  <path d="M 4241 5204 L 4405 5251 4483 5198 4320 5152 z "/>
  <path d="M 4483 5198 L 4648 5245 4725 5192 4560 5146 z "/>
  <path d="M 4725 5192 L 4893 5239 4968 5186 4801 5140 z "/>
  <path d="M 4968 5186 L 5137 5233 5211 5180 5042 5134 z "/>
  <path d="M 5211 5180 L 5382 5227 5455 5174 5284 5128 z "/>
  <path d="M 5455 5174 L 5628 5221 5700 5168 5527 5122 z "/>
  <path d="M 5700 5168 L 5875 5215 5945 5162 5770 5116 z "/>
  <path d="M 5945 5162 L 6122 5209 6190 5156 6014 5109 z "/>
  <path d="M 6190 5156 L 6369 5203 6436 5150 6258 5103 z "/>
  <path d="M 6436 5150 L 6617 5197 6683 5144 6503 5097 z "/>
  <path d="M 6683 5144 L 6866 5191 6930 5137 6748 5091 z "/>
  <path d="M 6930 5137 L 7115 5185 7178 5131 6994 5085 z "/>
  <path d="M 7178 5131 L 7365 5178 7427 5125 7240 5079 z "/>
  <path d="M 7427 5125 L 7615 5172 7676 5119 7487 5072 z "/>
  <path d="M 7676 5119 L 7866 5166 7925 5113 7735 5066 z "/>
  <path d="M 1054 5334 L 1194 5381 1290 5328 1150 5281 z "/>
  <path d="M 1290 5328 L 1431 5375 1526 5320 1385 5275 z "/>
  <path d="M 1526 5320 L 1669 5367 1763 5308 1620 5267 z "/>
  <path d="M 1763 5308 L 1907 5326 1998 5210 1854 5227 z "/>
  <path d="M 1998 5210 L 2142 5091 2226 4567 2085 4959 z "/>
  <path d="M 2226 4567 L 2371 4029 2458 3389 2305 3656 z "/>
  <path d="M 2458 3389 L 2617 3468 2716 5293 2553 3471 z "/>
  <path d="M 2716 5293 L 2869 5341 2956 5287 2803 5240 z "/>
  <path d="M 2956 5287 L 3110 5335 3196 5281 3042 5234 z "/>
  <path d="M 3196 5281 L 3352 5329 3436 5275 3280 5228 z "/>
  <path d="M 3436 5275 L 3595 5323 3678 5269 3520 5222 z "/>
  <path d="M 3678 5269 L 3838 5317 3920 5263 3760 5216 z "/>
  <path d="M 3920 5263 L 4082 5311 4162 5257 4000 5210 z "/>
  <path d="M 4162 5257 L 4326 5305 4405 5251 4241 5204 z "/>
  <path d="M 4405 5251 L 4571 5299 4648 5245 4483 5198 z "/>
  <path d="M 4648 5245 L 4816 5293 4893 5239 4725 5192 z "/>
  <path d="M 4893 5239 L 5062 5287 5137 5233 4968 5186 z "/>
  <path d="M 5137 5233 L 5309 5281 5382 5227 5211 5180 z "/>
  <path d="M 5382 5227 L 5556 5275 5628 5221 5455 5174 z "/>
  <path d="M 5628 5221 L 5804 5269 5875 5215 5700 5168 z "/>
  <path d="M 5875 5215 L 6052 5263 6122 5209 5945 5162 z "/>
  <path d="M 6122 5209 L 6301 5257 6369 5203 6190 5156 z "/>
  <path d="M 6369 5203 L 6551 5251 6617 5197 6436 5150 z "/>
  <path d="M 6617 5197 L 6801 5245 6866 5191 6683 5144 z "/>
  <path d="M 6866 5191 L 7051 5238 7115 5185 6930 5137 z "/>
  <path d="M 7115 5185 L 7303 5232 7365 5178 7178 5131 z "/>
  <path d="M 7365 5178 L 7555 5226 7615 5172 7427 5125 z "/>
  <path d="M 7615 5172 L 7807 5220 7866 5166 7676 5119 z "/>
  <path d="M 7866 5166 L 8060 5214 8118 5160 7925 5113 z "/>
  <path d="M 957 5387 L 1096 5435 1194 5381 1054 5334 z "/>
  <path d="M 1194 5381 L 1335 5429 1431 5375 1290 5328 z "/>
  <path d="M 1431 5375 L 1575 5422 1669 5367 1526 5320 z "/>
  <path d="M 1669 5367 L 1815 5410 1907 5326 1763 5308 z "/>
  <path d="M 1907 5326 L 2054 5331 2142 5091 1998 5210 z "/>
  <path d="M 2142 5091 L 2289 4921 2371 4029 2226 4567 z "/>
  <path d="M 2371 4029 L 2524 3607 2617 3468 2458 3389 z "/>
  <path d="M 2617 3468 L 2779 3426 2869 5341 2716 5293 z "/>
  <path d="M 2869 5341 L 3023 5389 3110 5335 2956 5287 z "/>
  <path d="M 3110 5335 L 3267 5383 3352 5329 3196 5281 z "/>
  <path d="M 3352 5329 L 3511 5377 3595 5323 3436 5275 z "/>
  <path d="M 3595 5323 L 3755 5371 3838 5317 3678 5269 z "/>
  <path d="M 3838 5317 L 4000 5365 4082 5311 3920 5263 z "/>
  <path d="M 4082 5311 L 4246 5359 4326 5305 4162 5257 z "/>
  <path d="M 4326 5305 L 4492 5353 4571 5299 4405 5251 z "/>
  <path d="M 4571 5299 L 4739 5347 4816 5293 4648 5245 z "/>
  <path d="M 4816 5293 L 4987 5341 5062 5287 4893 5239 z "/>
  <path d="M 5062 5287 L 5235 5335 5309 5281 5137 5233 z "/>
  <path d="M 5309 5281 L 5483 5329 5556 5275 5382 5227 z "/>
  <path d="M 5556 5275 L 5732 5323 5804 5269 5628 5221 z "/>
  <path d="M 5804 5269 L 5982 5317 6052 5263 5875 5215 z "/>
  <path d="M 6052 5263 L 6232 5311 6301 5257 6122 5209 z "/>
  <path d="M 6301 5257 L 6483 5305 6551 5251 6369 5203 z "/>
  <path d="M 6551 5251 L 6735 5299 6801 5245 6617 5197 z "/>
  <path d="M 6801 5245 L 6987 5293 7051 5238 6866 5191 z "/>
  <path d="M 7051 5238 L 7240 5287 7303 5232 7115 5185 z "/>
  <path d="M 7303 5232 L 7493 5281 7555 5226 7365 5178 z "/>
  <path d="M 7555 5226 L 7747 5275 7807 5220 7615 5172 z "/>
  <path d="M 7807 5220 L 8002 5269 8060 5214 7866 5166 z "/>
  <path d="M 8060 5214 L 8257 5262 8314 5208 8118 5160 z "/>
  <path d="M 858 5441 L 998 5490 1096 5435 957 5387 z "/>
  <path d="M 1096 5435 L 1238 5484 1335 5429 1194 5381 z "/>
  <path d="M 1335 5429 L 1479 5478 1575 5422 1431 5375 z "/>
  <path d="M 1575 5422 L 1720 5471 1815 5410 1669 5367 z "/>
  <path d="M 1815 5410 L 1962 5452 2054 5331 1907 5326 z "/>
  <path d="M 2054 5331 L 2202 5321 2289 4921 2142 5091 z "/>
  <path d="M 2289 4921 L 2439 4615 2524 3607 2371 4029 z "/>
  <path d="M 2524 3607 L 2685 3501 2779 3426 2617 3468 z "/>
  <path d="M 2779 3426 L 2936 5444 3023 5389 2869 5341 z "/>
  <path d="M 3023 5389 L 3180 5438 3267 5383 3110 5335 z "/>
  <path d="M 3267 5383 L 3426 5432 3511 5377 3352 5329 z "/>
  <path d="M 3511 5377 L 3672 5426 3755 5371 3595 5323 z "/>
  <path d="M 3755 5371 L 3918 5420 4000 5365 3838 5317 z "/>
  <path d="M 4000 5365 L 4165 5414 4246 5359 4082 5311 z "/>
  <path d="M 4246 5359 L 4413 5408 4492 5353 4326 5305 z "/>
  <path d="M 4492 5353 L 4661 5402 4739 5347 4571 5299 z "/>
  <path d="M 4739 5347 L 4910 5396 4987 5341 4816 5293 z "/>
  <path d="M 4987 5341 L 5159 5390 5235 5335 5062 5287 z "/>
  <path d="M 5235 5335 L 5409 5384 5483 5329 5309 5281 z "/>
  <path d="M 5483 5329 L 5660 5378 5732 5323 5556 5275 z "/>
  <path d="M 5732 5323 L 5911 5372 5982 5317 5804 5269 z "/>
  <path d="M 5982 5317 L 6163 5366 6232 5311 6052 5263 z "/>
  <path d="M 6232 5311 L 6415 5360 6483 5305 6301 5257 z "/>
  <path d="M 6483 5305 L 6668 5354 6735 5299 6551 5251 z "/>
  <path d="M 6735 5299 L 6922 5348 6987 5293 6801 5245 z "/>
  <path d="M 6987 5293 L 7176 5342 7240 5287 7051 5238 z "/>
  <path d="M 7240 5287 L 7431 5336 7493 5281 7303 5232 z "/>
  <path d="M 7493 5281 L 7686 5330 7747 5275 7555 5226 z "/>
  <path d="M 7747 5275 L 7942 5324 8002 5269 7807 5220 z "/>
  <path d="M 8002 5269 L 8199 5318 8257 5262 8060 5214 z "/>
  <path d="M 8257 5262 L 8456 5312 8512 5256 8314 5208 z "/>
  <path d="M 998 5490 L 1140 5539 1238 5484 1096 5435 z "/>
  <path d="M 1238 5484 L 1382 5534 1479 5478 1335 5429 z "/>
  <path d="M 1479 5478 L 1625 5527 1720 5471 1575 5422 z "/>
  <path d="M 1720 5471 L 1868 5519 1962 5452 1815 5410 z "/>
  <path d="M 1962 5452 L 2111 5481 2202 5321 2054 5331 z "/>
  <path d="M 2202 5321 L 2353 5236 2439 4615 2289 4921 z "/>
  <path d="M 2439 4615 L 2594 4282 2685 3501 2524 3607 z "/>
  <path d="M 2685 3501 L 2849 3599 2936 5444 2779 3426 z "/>
  <path d="M 2936 5444 L 3093 5493 3180 5438 3023 5389 z "/>
  <path d="M 3180 5438 L 3340 5487 3426 5432 3267 5383 z "/>
  <path d="M 3426 5432 L 3587 5482 3672 5426 3511 5377 z "/>
  <path d="M 3672 5426 L 3835 5476 3918 5420 3755 5371 z "/>
  <path d="M 3918 5420 L 4083 5470 4165 5414 4000 5365 z "/>
  <path d="M 4165 5414 L 4332 5464 4413 5408 4246 5359 z "/>
  <path d="M 4413 5408 L 4582 5458 4661 5402 4492 5353 z "/>
  <path d="M 4661 5402 L 4832 5452 4910 5396 4739 5347 z "/>
  <path d="M 4910 5396 L 5083 5446 5159 5390 4987 5341 z "/>
  <path d="M 5159 5390 L 5334 5440 5409 5384 5235 5335 z "/>
  <path d="M 5409 5384 L 5586 5434 5660 5378 5483 5329 z "/>
  <path d="M 5660 5378 L 5839 5428 5911 5372 5732 5323 z "/>
  <path d="M 5911 5372 L 6092 5422 6163 5366 5982 5317 z "/>
  <path d="M 6163 5366 L 6346 5416 6415 5360 6232 5311 z "/>
  <path d="M 6415 5360 L 6601 5410 6668 5354 6483 5305 z "/>
  <path d="M 6668 5354 L 6856 5404 6922 5348 6735 5299 z "/>
  <path d="M 6922 5348 L 7111 5398 7176 5342 6987 5293 z "/>
  <path d="M 7176 5342 L 7368 5392 7431 5336 7240 5287 z "/>
  <path d="M 7431 5336 L 7625 5386 7686 5330 7493 5281 z "/>
  <path d="M 7686 5330 L 7882 5380 7942 5324 7747 5275 z "/>
  <path d="M 7942 5324 L 8140 5374 8199 5318 8002 5269 z "/>
  <path d="M 8199 5318 L 8399 5368 8456 5312 8257 5262 z "/>
  <path d="M 1140 5539 L 1284 5590 1382 5534 1238 5484 z "/>
  <path d="M 1382 5534 L 1528 5584 1625 5527 1479 5478 z "/>
  <path d="M 1625 5527 L 1773 5578 1868 5519 1720 5471 z "/>
  <path d="M 1868 5519 L 2018 5568 2111 5481 1962 5452 z "/>
  <path d="M 2111 5481 L 2263 5507 2353 5236 2202 5321 z "/>
  <path d="M 2353 5236 L 2507 5211 2594 4282 2439 4615 z "/>
  <path d="M 2594 4282 L 2754 3946 2849 3599 2685 3501 z "/>
  <path d="M 2849 3599 L 3016 3559 3093 5493 2936 5444 z "/>
  <path d="M 3093 5493 L 3253 5544 3340 5487 3180 5438 z "/>
  <path d="M 3340 5487 L 3501 5538 3587 5482 3426 5432 z "/>
  <path d="M 3587 5482 L 3751 5532 3835 5476 3672 5426 z "/>
  <path d="M 3835 5476 L 4000 5526 4083 5470 3918 5420 z "/>
  <path d="M 4083 5470 L 4251 5520 4332 5464 4165 5414 z "/>
  <path d="M 4332 5464 L 4502 5514 4582 5458 4413 5408 z "/>
  <path d="M 4582 5458 L 4754 5508 4832 5452 4661 5402 z "/>
  <path d="M 4832 5452 L 5006 5502 5083 5446 4910 5396 z "/>
  <path d="M 5083 5446 L 5259 5497 5334 5440 5159 5390 z "/>
  <path d="M 5334 5440 L 5512 5491 5586 5434 5409 5384 z "/>
  <path d="M 5586 5434 L 5766 5485 5839 5428 5660 5378 z "/>
  <path d="M 5839 5428 L 6021 5479 6092 5422 5911 5372 z "/>
  <path d="M 6092 5422 L 6276 5473 6346 5416 6163 5366 z "/>
  <path d="M 6346 5416 L 6532 5467 6601 5410 6415 5360 z "/>
  <path d="M 6601 5410 L 6789 5461 6856 5404 6668 5354 z "/>
  <path d="M 6856 5404 L 7046 5455 7111 5398 6922 5348 z "/>
  <path d="M 7111 5398 L 7304 5449 7368 5392 7176 5342 z "/>
  <path d="M 7368 5392 L 7562 5443 7625 5386 7431 5336 z "/>
  <path d="M 7625 5386 L 7821 5437 7882 5380 7686 5330 z "/>
  <path d="M 7882 5380 L 8081 5431 8140 5374 7942 5324 z "/>
  <path d="M 8140 5374 L 8341 5424 8399 5368 8199 5318 z "/>
  <path d="M 1284 5590 L 1430 5641 1528 5584 1382 5534 z "/>
  <path d="M 1528 5584 L 1676 5635 1773 5578 1625 5527 z "/>
  <path d="M 1773 5578 L 1923 5628 2018 5568 1868 5519 z "/>
  <path d="M 2018 5568 L 2170 5616 2263 5507 2111 5481 z "/>
  <path d="M 2263 5507 L 2417 5526 2507 5211 2353 5236 z "/>
  <path d="M 2507 5211 L 2664 5149 2754 3946 2594 4282 z "/>
  <path d="M 2754 3946 L 2921 3737 3016 3559 2849 3599 z "/>
  <path d="M 3016 3559 L 3187 3474 3253 5544 3093 5493 z "/>
  <path d="M 3253 5544 L 3415 5595 3501 5538 3340 5487 z "/>
  <path d="M 3501 5538 L 3665 5589 3751 5532 3587 5482 z "/>
  <path d="M 3751 5532 L 3917 5583 4000 5526 3835 5476 z "/>
  <path d="M 4000 5526 L 4168 5577 4251 5520 4083 5470 z "/>
  <path d="M 4251 5520 L 4421 5571 4502 5514 4332 5464 z "/>
  <path d="M 4502 5514 L 4674 5565 4754 5508 4582 5458 z "/>
  <path d="M 4754 5508 L 4928 5560 5006 5502 4832 5452 z "/>
  <path d="M 5006 5502 L 5182 5554 5259 5497 5083 5446 z "/>
  <path d="M 5259 5497 L 5437 5548 5512 5491 5334 5440 z "/>
  <path d="M 5512 5491 L 5693 5542 5766 5485 5586 5434 z "/>
  <path d="M 5766 5485 L 5949 5536 6021 5479 5839 5428 z "/>
  <path d="M 6021 5479 L 6206 5530 6276 5473 6092 5422 z "/>
  <path d="M 6276 5473 L 6463 5524 6532 5467 6346 5416 z "/>
  <path d="M 6532 5467 L 6721 5518 6789 5461 6601 5410 z "/>
  <path d="M 6789 5461 L 6980 5512 7046 5455 6856 5404 z "/>
  <path d="M 7046 5455 L 7239 5506 7304 5449 7111 5398 z "/>
  <path d="M 7304 5449 L 7499 5500 7562 5443 7368 5392 z "/>
  <path d="M 7562 5443 L 7760 5494 7821 5437 7625 5386 z "/>
  <path d="M 7821 5437 L 8021 5488 8081 5431 7882 5380 z "/>
  <path d="M 8081 5431 L 8283 5482 8341 5424 8140 5374 z "/>
  <path d="M 1430 5641 L 1579 5692 1676 5635 1528 5584 z "/>
  <path d="M 1676 5635 L 1827 5686 1923 5628 1773 5578 z "/>
  <path d="M 1923 5628 L 2075 5680 2170 5616 2018 5568 z "/>
  <path d="M 2170 5616 L 2324 5666 2417 5526 2263 5507 z "/>
  <path d="M 2417 5526 L 2573 5579 2664 5149 2507 5211 z "/>
  <path d="M 2664 5149 L 2825 5025 2921 3737 2754 3946 z "/>
  <path d="M 2921 3737 L 3091 3653 3187 3474 3016 3559 z "/>
  <path d="M 3187 3474 L 3327 5652 3415 5595 3253 5544 z "/>
  <path d="M 3415 5595 L 3579 5646 3665 5589 3501 5538 z "/>
  <path d="M 3665 5589 L 3832 5641 3917 5583 3751 5532 z "/>
  <path d="M 3917 5583 L 4085 5635 4168 5577 4000 5526 z "/>
  <path d="M 4168 5577 L 4339 5629 4421 5571 4251 5520 z "/>
  <path d="M 4421 5571 L 4594 5623 4674 5565 4502 5514 z "/>
  <path d="M 4674 5565 L 4849 5617 4928 5560 4754 5508 z "/>
  <path d="M 4928 5560 L 5105 5611 5182 5554 5006 5502 z "/>
  <path d="M 5182 5554 L 5361 5606 5437 5548 5259 5497 z "/>
  <path d="M 5437 5548 L 5618 5600 5693 5542 5512 5491 z "/>
  <path d="M 5693 5542 L 5876 5594 5949 5536 5766 5485 z "/>
  <path d="M 5949 5536 L 6134 5588 6206 5530 6021 5479 z "/>
  <path d="M 6206 5530 L 6393 5582 6463 5524 6276 5473 z "/>
  <path d="M 6463 5524 L 6653 5576 6721 5518 6532 5467 z "/>
  <path d="M 6721 5518 L 6913 5570 6980 5512 6789 5461 z "/>
  <path d="M 6980 5512 L 7174 5564 7239 5506 7046 5455 z "/>
  <path d="M 7239 5506 L 7435 5558 7499 5500 7304 5449 z "/>
  <path d="M 7499 5500 L 7697 5552 7760 5494 7562 5443 z "/>
  <path d="M 7760 5494 L 7960 5546 8021 5488 7821 5437 z "/>
  <path d="M 8021 5488 L 8224 5540 8283 5482 8081 5431 z "/>
  <path d="M 1579 5692 L 1729 5745 1827 5686 1676 5635 z "/>
  <path d="M 1827 5686 L 1979 5739 2075 5680 1923 5628 z "/>
  <path d="M 2075 5680 L 2230 5732 2324 5666 2170 5616 z "/>
  <path d="M 2324 5666 L 2481 5716 2573 5579 2417 5526 z "/>
  <path d="M 2573 5579 L 2732 5580 2825 5025 2664 5149 z "/>
  <path d="M 2825 5025 L 2989 4919 3091 3653 2921 3737 z "/>
  <path d="M 3091 3653 L 3263 3761 3327 5652 3187 3474 z "/>
  <path d="M 3327 5652 L 3491 5705 3579 5646 3415 5595 z "/>
  <path d="M 3579 5646 L 3746 5699 3832 5641 3665 5589 z "/>
  <path d="M 3832 5641 L 4000 5693 4085 5635 3917 5583 z "/>
  <path d="M 4085 5635 L 4256 5687 4339 5629 4168 5577 z "/>
  <path d="M 4339 5629 L 4512 5682 4594 5623 4421 5571 z "/>
  <path d="M 4594 5623 L 4769 5676 4849 5617 4674 5565 z "/>
  <path d="M 4849 5617 L 5026 5670 5105 5611 4928 5560 z "/>
  <path d="M 5105 5611 L 5284 5664 5361 5606 5182 5554 z "/>
  <path d="M 5361 5606 L 5543 5658 5618 5600 5437 5548 z "/>
  <path d="M 5618 5600 L 5802 5652 5876 5594 5693 5542 z "/>
  <path d="M 5876 5594 L 6062 5647 6134 5588 5949 5536 z "/>
  <path d="M 6134 5588 L 6322 5641 6393 5582 6206 5530 z "/>
  <path d="M 6393 5582 L 6583 5635 6653 5576 6463 5524 z "/>
  <path d="M 6653 5576 L 6845 5629 6913 5570 6721 5518 z "/>
  <path d="M 6913 5570 L 7107 5623 7174 5564 6980 5512 z "/>
  <path d="M 7174 5564 L 7370 5617 7435 5558 7239 5506 z "/>
  <path d="M 7435 5558 L 7634 5611 7697 5552 7499 5500 z "/>
  <path d="M 7697 5552 L 7899 5605 7960 5546 7760 5494 z "/>
  <path d="M 7960 5546 L 8164 5599 8224 5540 8021 5488 z "/>
  <path d="M 1729 5745 L 1882 5798 1979 5739 1827 5686 z "/>
  <path d="M 1979 5739 L 2134 5792 2230 5732 2075 5680 z "/>
  <path d="M 2230 5732 L 2386 5785 2481 5716 2324 5666 z "/>
  <path d="M 2481 5716 L 2640 5766 2732 5580 2573 5579 z "/>
  <path d="M 2732 5580 L 2894 5585 2989 4919 2825 5025 z "/>
  <path d="M 2989 4919 L 3159 4686 3263 3761 3091 3653 z "/>
  <path d="M 3263 3761 L 3438 3796 3491 5705 3327 5652 z "/>
  <path d="M 3491 5705 L 3659 5758 3746 5699 3579 5646 z "/>
  <path d="M 3746 5699 L 3915 5752 4000 5693 3832 5641 z "/>
  <path d="M 4000 5693 L 4172 5747 4256 5687 4085 5635 z "/>
  <path d="M 4256 5687 L 4429 5741 4512 5682 4339 5629 z "/>
  <path d="M 4512 5682 L 4688 5735 4769 5676 4594 5623 z "/>
  <path d="M 4769 5676 L 4946 5729 5026 5670 4849 5617 z "/>
  <path d="M 5026 5670 L 5206 5723 5284 5664 5105 5611 z "/>
  <path d="M 5284 5664 L 5466 5718 5543 5658 5361 5606 z "/>
  <path d="M 5543 5658 L 5727 5712 5802 5652 5618 5600 z "/>
  <path d="M 5802 5652 L 5988 5706 6062 5647 5876 5594 z "/>
  <path d="M 6062 5647 L 6250 5700 6322 5641 6134 5588 z "/>
  <path d="M 6322 5641 L 6513 5694 6583 5635 6393 5582 z "/>
  <path d="M 6583 5635 L 6776 5688 6845 5629 6653 5576 z "/>
  <path d="M 6845 5629 L 7040 5683 7107 5623 6913 5570 z "/>
  <path d="M 7107 5623 L 7305 5677 7370 5617 7174 5564 z "/>
  <path d="M 7370 5617 L 7570 5671 7634 5611 7435 5558 z "/>
  <path d="M 7634 5611 L 7836 5665 7899 5605 7697 5552 z "/>
  <path d="M 7899 5605 L 8103 5659 8164 5599 7960 5546 z "/>
  <path d="M 1882 5798 L 2037 5852 2134 5792 1979 5739 z "/>
  <path d="M 2134 5792 L 2291 5846 2386 5785 2230 5732 z "/>
  <path d="M 2386 5785 L 2546 5839 2640 5766 2481 5716 z "/>
  <path d="M 2640 5766 L 2801 5815 2894 5585 2732 5580 z "/>
  <path d="M 2894 5585 L 3058 5613 3159 4686 2989 4919 z "/>
  <path d="M 3159 4686 L 3334 4500 3438 3796 3263 3761 z "/>
  <path d="M 3438 3796 L 3617 3815 3659 5758 3491 5705 z "/>
  <path d="M 3659 5758 L 3828 5812 3915 5752 3746 5699 z "/>
  <path d="M 3915 5752 L 4087 5806 4172 5747 4000 5693 z "/>
  <path d="M 4172 5747 L 4346 5801 4429 5741 4256 5687 z "/>
  <path d="M 4429 5741 L 4606 5795 4688 5735 4512 5682 z "/>
  <path d="M 4688 5735 L 4866 5789 4946 5729 4769 5676 z "/>
  <path d="M 4946 5729 L 5127 5784 5206 5723 5026 5670 z "/>
  <path d="M 5206 5723 L 5389 5778 5466 5718 5284 5664 z "/>
  <path d="M 5466 5718 L 5651 5772 5727 5712 5543 5658 z "/>
  <path d="M 5727 5712 L 5914 5766 5988 5706 5802 5652 z "/>
  <path d="M 5988 5706 L 6177 5760 6250 5700 6062 5647 z "/>
  <path d="M 6250 5700 L 6442 5755 6513 5694 6322 5641 z "/>
  <path d="M 6513 5694 L 6707 5749 6776 5688 6583 5635 z "/>
  <path d="M 6776 5688 L 6972 5743 7040 5683 6845 5629 z "/>
  <path d="M 7040 5683 L 7239 5737 7305 5677 7107 5623 z "/>
  <path d="M 7305 5677 L 7505 5731 7570 5671 7370 5617 z "/>
  <path d="M 7570 5671 L 7773 5725 7836 5665 7634 5611 z "/>
  <path d="M 7836 5665 L 8041 5719 8103 5659 7899 5605 z "/>
  <path d="M 2037 5852 L 2194 5906 2291 5846 2134 5792 z "/>
  <path d="M 2291 5846 L 2450 5901 2546 5839 2386 5785 z "/>
  <path d="M 2546 5839 L 2707 5893 2801 5815 2640 5766 z "/>
  <path d="M 2801 5815 L 2965 5866 3058 5613 2894 5585 z "/>
  <path d="M 3058 5613 L 3226 5615 3334 4500 3159 4686 z "/>
  <path d="M 3334 4500 L 3514 4283 3617 3815 3438 3796 z "/>
  <path d="M 3617 3815 L 3800 3758 3828 5812 3659 5758 z "/>
  <path d="M 3828 5812 L 4001 5867 4087 5806 3915 5752 z "/>
  <path d="M 4087 5806 L 4261 5861 4346 5801 4172 5747 z "/>
  <path d="M 4346 5801 L 4522 5856 4606 5795 4429 5741 z "/>
  <path d="M 4606 5795 L 4784 5850 4866 5789 4688 5735 z "/>
  <path d="M 4866 5789 L 5047 5844 5127 5784 4946 5729 z "/>
  <path d="M 5127 5784 L 5310 5839 5389 5778 5206 5723 z "/>
  <path d="M 5389 5778 L 5574 5833 5651 5772 5466 5718 z "/>
  <path d="M 5651 5772 L 5839 5827 5914 5766 5727 5712 z "/>
  <path d="M 5914 5766 L 6104 5821 6177 5760 5988 5706 z "/>
  <path d="M 6177 5760 L 6370 5816 6442 5755 6250 5700 z "/>
  <path d="M 6442 5755 L 6636 5810 6707 5749 6513 5694 z "/>
  <path d="M 6707 5749 L 6903 5804 6972 5743 6776 5688 z "/>
  <path d="M 6972 5743 L 7171 5798 7239 5737 7040 5683 z "/>
  <path d="M 7239 5737 L 7440 5792 7505 5731 7305 5677 z "/>
  <path d="M 7505 5731 L 7709 5786 7773 5725 7570 5671 z "/>
  <path d="M 7773 5725 L 7979 5781 8041 5719 7836 5665 z "/>
  <path d="M 2194 5906 L 2354 5962 2450 5901 2291 5846 z "/>
  <path d="M 2450 5901 L 2612 5957 2707 5893 2546 5839 z "/>
  <path d="M 2707 5893 L 2871 5949 2965 5866 2801 5815 z "/>
  <path d="M 2965 5866 L 3131 5907 3226 5615 3058 5613 z "/>
  <path d="M 3226 5615 L 3397 5574 3514 4283 3334 4500 z "/>
  <path d="M 3514 4283 L 3695 4256 3800 3758 3617 3815 z "/>
  <path d="M 3800 3758 L 3989 3667 4001 5867 3828 5812 z "/>
  <path d="M 4001 5867 L 4175 5923 4261 5861 4087 5806 z "/>
  <path d="M 4261 5861 L 4438 5917 4522 5856 4346 5801 z "/>
  <path d="M 4522 5856 L 4702 5912 4784 5850 4606 5795 z "/>
  <path d="M 4784 5850 L 4966 5906 5047 5844 4866 5789 z "/>
  <path d="M 5047 5844 L 5231 5900 5310 5839 5127 5784 z "/>
  <path d="M 5310 5839 L 5496 5895 5574 5833 5389 5778 z "/>
  <path d="M 5574 5833 L 5762 5889 5839 5827 5651 5772 z "/>
  <path d="M 5839 5827 L 6029 5883 6104 5821 5914 5766 z "/>
  <path d="M 6104 5821 L 6297 5877 6370 5816 6177 5760 z "/>
  <path d="M 6370 5816 L 6565 5872 6636 5810 6442 5755 z "/>
  <path d="M 6636 5810 L 6834 5866 6903 5804 6707 5749 z "/>
  <path d="M 6903 5804 L 7103 5860 7171 5798 6972 5743 z "/>
  <path d="M 7171 5798 L 7373 5854 7440 5792 7239 5737 z "/>
  <path d="M 7440 5792 L 7644 5848 7709 5786 7505 5731 z "/>
  <path d="M 7709 5786 L 7916 5843 7979 5781 7773 5725 z "/>
  <path d="M 2354 5962 L 2516 6019 2612 5957 2450 5901 z "/>
  <path d="M 2612 5957 L 2776 6013 2871 5949 2707 5893 z "/>
  <path d="M 2871 5949 L 3038 6005 3131 5907 2965 5866 z "/>
  <path d="M 3131 5907 L 3300 5947 3397 5574 3226 5615 z "/>
  <path d="M 3397 5574 L 3571 5573 3695 4256 3514 4283 z "/>
  <path d="M 3695 4256 L 3880 4214 3989 3667 3800 3758 z "/>
  <path d="M 3989 3667 L 4089 5985 4175 5923 4001 5867 z "/>
  <path d="M 4175 5923 L 4353 5980 4438 5917 4261 5861 z "/>
  <path d="M 4438 5917 L 4618 5974 4702 5912 4522 5856 z "/>
  <path d="M 4702 5912 L 4884 5968 4966 5906 4784 5850 z "/>
  <path d="M 4966 5906 L 5150 5963 5231 5900 5047 5844 z "/>
  <path d="M 5231 5900 L 5417 5957 5496 5895 5310 5839 z "/>
  <path d="M 5496 5895 L 5685 5951 5762 5889 5574 5833 z "/>
  <path d="M 5762 5889 L 5954 5946 6029 5883 5839 5827 z "/>
  <path d="M 6029 5883 L 6223 5940 6297 5877 6104 5821 z "/>
  <path d="M 6297 5877 L 6492 5934 6565 5872 6370 5816 z "/>
  <path d="M 6565 5872 L 6763 5929 6834 5866 6636 5810 z "/>
  <path d="M 6834 5866 L 7034 5923 7103 5860 6903 5804 z "/>
  <path d="M 7103 5860 L 7306 5917 7373 5854 7171 5798 z "/>
  <path d="M 7373 5854 L 7579 5911 7644 5848 7440 5792 z "/>
  <path d="M 7644 5848 L 7852 5905 7916 5843 7709 5786 z "/>
  <path d="M 2516 6019 L 2681 6076 2776 6013 2612 5957 z "/>
  <path d="M 2776 6013 L 2943 6070 3038 6005 2871 5949 z "/>
  <path d="M 3038 6005 L 3207 6062 3300 5947 3131 5907 z "/>
  <path d="M 3300 5947 L 3472 5990 3571 5573 3397 5574 z "/>
  <path d="M 3571 5573 L 3747 5642 3880 4214 3695 4256 z "/>
  <path d="M 3880 4214 L 4067 4220 4089 5985 3989 3667 z "/>
  <path d="M 4089 5985 L 4267 6043 4353 5980 4175 5923 z "/>
  <path d="M 4353 5980 L 4533 6037 4618 5974 4438 5917 z "/>
  <path d="M 4618 5974 L 4801 6032 4884 5968 4702 5912 z "/>
  <path d="M 4884 5968 L 5069 6026 5150 5963 4966 5906 z "/>
  <path d="M 5150 5963 L 5337 6020 5417 5957 5231 5900 z "/>
  <path d="M 5417 5957 L 5607 6015 5685 5951 5496 5895 z "/>
  <path d="M 5685 5951 L 5877 6009 5954 5946 5762 5889 z "/>
  <path d="M 5954 5946 L 6148 6003 6223 5940 6029 5883 z "/>
  <path d="M 6223 5940 L 6419 5998 6492 5934 6297 5877 z "/>
  <path d="M 6492 5934 L 6691 5992 6763 5929 6565 5872 z "/>
  <path d="M 6763 5929 L 6964 5986 7034 5923 6834 5866 z "/>
  <path d="M 7034 5923 L 7238 5981 7306 5917 7103 5860 z "/>
  <path d="M 7306 5917 L 7512 5975 7579 5911 7373 5854 z "/>
  <path d="M 7579 5911 L 7787 5969 7852 5905 7644 5848 z "/>
  <path d="M 2681 6076 L 2848 6134 2943 6070 2776 6013 z "/>
  <path d="M 2943 6070 L 3113 6128 3207 6062 3038 6005 z "/>
  <path d="M 3207 6062 L 3378 6120 3472 5990 3300 5947 z "/>
  <path d="M 3472 5990 L 3647 6042 3747 5642 3571 5573 z "/>
  <path d="M 3747 5642 L 3929 5581 4067 4220 3880 4214 z "/>
  <path d="M 4067 4220 L 4260 4179 4267 6043 4089 5985 z "/>
  <path d="M 4267 6043 L 4447 6101 4533 6037 4353 5980 z "/>
  <path d="M 4533 6037 L 4716 6096 4801 6032 4618 5974 z "/>
  <path d="M 4801 6032 L 4986 6090 5069 6026 4884 5968 z "/>
  <path d="M 5069 6026 L 5257 6084 5337 6020 5150 5963 z "/>
  <path d="M 5337 6020 L 5528 6079 5607 6015 5417 5957 z "/>
  <path d="M 5607 6015 L 5799 6073 5877 6009 5685 5951 z "/>
  <path d="M 5877 6009 L 6072 6068 6148 6003 5954 5946 z "/>
  <path d="M 6148 6003 L 6345 6062 6419 5998 6223 5940 z "/>
  <path d="M 6419 5998 L 6619 6056 6691 5992 6492 5934 z "/>
  <path d="M 6691 5992 L 6893 6051 6964 5986 6763 5929 z "/>
  <path d="M 6964 5986 L 7169 6045 7238 5981 7034 5923 z "/>
  <path d="M 7238 5981 L 7445 6039 7512 5975 7306 5917 z "/>
  <path d="M 7512 5975 L 7722 6034 7787 5969 7579 5911 z "/>
  <path d="M 2848 6134 L 3018 6193 3113 6128 2943 6070 z "/>
  <path d="M 3113 6128 L 3285 6188 3378 6120 3207 6062 z "/>
  <path d="M 3378 6120 L 3553 6178 3647 6042 3472 5990 z "/>
  <path d="M 3647 6042 L 3824 6088 3929 5581 3747 5642 z "/>
  <path d="M 3929 5581 L 4116 5530 4260 4179 4067 4220 z "/>
  <path d="M 4260 4179 L 4452 4232 4447 6101 4267 6043 z "/>
  <path d="M 4447 6101 L 4631 6160 4716 6096 4533 6037 z "/>
  <path d="M 4716 6096 L 4902 6155 4986 6090 4801 6032 z "/>
  <path d="M 4986 6090 L 5175 6149 5257 6084 5069 6026 z "/>
  <path d="M 5257 6084 L 5447 6144 5528 6079 5337 6020 z "/>
  <path d="M 5528 6079 L 5721 6138 5799 6073 5607 6015 z "/>
  <path d="M 5799 6073 L 5995 6133 6072 6068 5877 6009 z "/>
  <path d="M 6072 6068 L 6270 6127 6345 6062 6148 6003 z "/>
  <path d="M 6345 6062 L 6545 6122 6619 6056 6419 5998 z "/>
  <path d="M 6619 6056 L 6822 6116 6893 6051 6691 5992 z "/>
  <path d="M 6893 6051 L 7099 6110 7169 6045 6964 5986 z "/>
  <path d="M 7169 6045 L 7377 6105 7445 6039 7238 5981 z "/>
  <path d="M 7445 6039 L 7655 6099 7722 6034 7512 5975 z "/>
  <path d="M 3018 6193 L 3190 6253 3285 6188 3113 6128 z "/>
  <path d="M 3285 6188 L 3460 6248 3553 6178 3378 6120 z "/>
  <path d="M 3553 6178 L 3730 6238 3824 6088 3647 6042 z "/>
  <path d="M 3824 6088 L 4004 6156 4116 5530 3929 5581 z "/>
  <path d="M 4116 5530 L 4299 5636 4452 4232 4260 4179 z "/>
  <path d="M 4452 4232 L 4651 4229 4631 6160 4447 6101 z "/>
  <path d="M 4631 6160 L 4818 6221 4902 6155 4716 6096 z "/>
  <path d="M 4902 6155 L 5091 6215 5175 6149 4986 6090 z "/>
  <path d="M 5175 6149 L 5366 6210 5447 6144 5257 6084 z "/>
  <path d="M 5447 6144 L 5641 6204 5721 6138 5528 6079 z "/>
  <path d="M 5721 6138 L 5917 6199 5995 6133 5799 6073 z "/>
  <path d="M 5995 6133 L 6194 6193 6270 6127 6072 6068 z "/>
  <path d="M 6270 6127 L 6471 6188 6545 6122 6345 6062 z "/>
  <path d="M 6545 6122 L 6749 6182 6822 6116 6619 6056 z "/>
  <path d="M 6822 6116 L 7028 6176 7099 6110 6893 6051 z "/>
  <path d="M 7099 6110 L 7307 6171 7377 6105 7169 6045 z "/>
  <path d="M 7377 6105 L 7588 6165 7655 6099 7445 6039 z "/>
  <path d="M 3190 6253 L 3365 6314 3460 6248 3285 6188 z "/>
  <path d="M 3460 6248 L 3637 6309 3730 6238 3553 6178 z "/>
  <path d="M 3730 6238 L 3910 6299 4004 6156 3824 6088 z "/>
  <path d="M 4004 6156 L 4187 6205 4299 5636 4116 5530 z "/>
  <path d="M 4299 5636 L 4492 5594 4651 4229 4452 4232 z "/>
  <path d="M 4651 4229 L 4852 4258 4818 6221 4631 6160 z "/>
  <path d="M 4818 6221 L 5007 6282 5091 6215 4902 6155 z "/>
  <path d="M 5091 6215 L 5283 6277 5366 6210 5175 6149 z "/>
  <path d="M 5366 6210 L 5560 6271 5641 6204 5447 6144 z "/>
  <path d="M 5641 6204 L 5838 6266 5917 6199 5721 6138 z "/>
  <path d="M 5917 6199 L 6116 6260 6194 6193 5995 6133 z "/>
  <path d="M 6194 6193 L 6395 6255 6471 6188 6270 6127 z "/>
  <path d="M 6471 6188 L 6675 6249 6749 6182 6545 6122 z "/>
  <path d="M 6749 6182 L 6956 6244 7028 6176 6822 6116 z "/>
  <path d="M 7028 6176 L 7237 6238 7307 6171 7099 6110 z "/>
  <path d="M 7307 6171 L 7519 6232 7588 6165 7377 6105 z "/>
  <path d="M 3365 6314 L 3543 6376 3637 6309 3460 6248 z "/>
  <path d="M 3637 6309 L 3817 6371 3910 6299 3730 6238 z "/>
  <path d="M 3910 6299 L 4093 6361 4187 6205 4004 6156 z "/>
  <path d="M 4187 6205 L 4373 6254 4492 5594 4299 5636 z "/>
  <path d="M 4492 5594 L 4690 5554 4852 4258 4651 4229 z "/>
  <path d="M 4852 4258 L 5059 4247 5007 6282 4818 6221 z "/>
  <path d="M 5007 6282 L 5200 6344 5283 6277 5091 6215 z "/>
  <path d="M 5283 6277 L 5479 6339 5560 6271 5366 6210 z "/>
  <path d="M 5560 6271 L 5758 6333 5838 6266 5641 6204 z "/>
  <path d="M 5838 6266 L 6038 6328 6116 6260 5917 6199 z "/>
  <path d="M 6116 6260 L 6319 6322 6395 6255 6194 6193 z "/>
  <path d="M 6395 6255 L 6601 6317 6675 6249 6471 6188 z "/>
  <path d="M 6675 6249 L 6883 6312 6956 6244 6749 6182 z "/>
  <path d="M 6956 6244 L 7166 6306 7237 6238 7028 6176 z "/>
  <path d="M 7237 6238 L 7450 6301 7519 6232 7307 6171 z "/>
  <path d="M 3543 6376 L 3724 6439 3817 6371 3637 6309 z "/>
  <path d="M 3817 6371 L 4001 6434 4093 6361 3910 6299 z "/>
  <path d="M 4093 6361 L 4278 6424 4373 6254 4187 6205 z "/>
  <path d="M 4373 6254 L 4562 6323 4690 5554 4492 5594 z "/>
  <path d="M 4690 5554 L 4894 5480 5059 4247 4852 4258 z "/>
  <path d="M 5059 4247 L 5269 4251 5200 6344 5007 6282 z "/>
  <path d="M 5200 6344 L 5396 6407 5479 6339 5283 6277 z "/>
  <path d="M 5479 6339 L 5677 6402 5758 6333 5560 6271 z "/>
  <path d="M 5758 6333 L 5959 6397 6038 6328 5838 6266 z "/>
  <path d="M 6038 6328 L 6241 6391 6319 6322 6116 6260 z "/>
  <path d="M 6319 6322 L 6525 6386 6601 6317 6395 6255 z "/>
  <path d="M 6601 6317 L 6809 6380 6883 6312 6675 6249 z "/>
  <path d="M 6883 6312 L 7094 6375 7166 6306 6956 6244 z "/>
  <path d="M 7166 6306 L 7380 6370 7450 6301 7237 6238 z "/>
  <path d="M 3724 6439 L 3908 6503 4001 6434 3817 6371 z "/>
  <path d="M 4001 6434 L 4187 6498 4278 6424 4093 6361 z "/>
  <path d="M 4278 6424 L 4467 6487 4562 6323 4373 6254 z "/>
  <path d="M 4562 6323 L 4755 6360 4894 5480 4690 5554 z "/>
  <path d="M 4894 5480 L 5098 5479 5269 4251 5059 4247 z "/>
  <path d="M 5269 4251 L 5484 4252 5396 6407 5200 6344 z "/>
  <path d="M 5396 6407 L 5595 6472 5677 6402 5479 6339 z "/>
  <path d="M 5677 6402 L 5878 6466 5959 6397 5758 6333 z "/>
  <path d="M 5959 6397 L 6163 6461 6241 6391 6038 6328 z "/>
  <path d="M 6241 6391 L 6448 6456 6525 6386 6319 6322 z "/>
  <path d="M 6525 6386 L 6734 6450 6809 6380 6601 6317 z "/>
  <path d="M 6809 6380 L 7021 6445 7094 6375 6883 6312 z "/>
  <path d="M 7094 6375 L 7309 6439 7380 6370 7166 6306 z "/>
  <path d="M 3908 6503 L 4095 6568 4187 6498 4001 6434 z "/>
  <path d="M 4187 6498 L 4376 6563 4467 6487 4278 6424 z "/>
  <path d="M 4467 6487 L 4659 6552 4755 6360 4562 6323 z "/>
  <path d="M 4755 6360 L 4951 6422 5098 5479 4894 5480 z "/>
  <path d="M 5098 5479 L 5305 5494 5484 4252 5269 4251 z "/>
  <path d="M 5484 4252 L 5706 4218 5595 6472 5396 6407 z "/>
  <path d="M 5595 6472 L 5797 6537 5878 6466 5677 6402 z "/>
  <path d="M 5878 6466 L 6083 6532 6163 6461 5959 6397 z "/>
  <path d="M 6163 6461 L 6370 6526 6448 6456 6241 6391 z "/>
  <path d="M 6448 6456 L 6658 6521 6734 6450 6525 6386 z "/>
  <path d="M 6734 6450 L 6947 6516 7021 6445 6809 6380 z "/>
  <path d="M 7021 6445 L 7236 6510 7309 6439 7094 6375 z "/>
  <path d="M 4095 6568 L 4284 6634 4376 6563 4187 6498 z "/>
  <path d="M 4376 6563 L 4569 6629 4659 6552 4467 6487 z "/>
  <path d="M 4659 6552 L 4854 6618 4951 6422 4755 6360 z "/>
  <path d="M 4951 6422 L 5151 6461 5305 5494 5098 5479 z "/>
  <path d="M 5305 5494 L 5525 5404 5706 4218 5484 4252 z "/>
  <path d="M 5706 4218 L 5943 4074 5797 6537 5595 6472 z "/>
  <path d="M 5797 6537 L 6002 6603 6083 6532 5878 6466 z "/>
  <path d="M 6083 6532 L 6291 6598 6370 6526 6163 6461 z "/>
  <path d="M 6370 6526 L 6581 6593 6658 6521 6448 6456 z "/>
  <path d="M 6658 6521 L 6872 6588 6947 6516 6734 6450 z "/>
  <path d="M 6947 6516 L 7163 6582 7236 6510 7021 6445 z "/>
  <path d="M 4284 6634 L 4477 6702 4569 6629 4376 6563 z "/>
  <path d="M 4569 6629 L 4765 6696 4854 6618 4659 6552 z "/>
  <path d="M 4854 6618 L 5053 6684 5151 6461 4951 6422 z "/>
  <path d="M 5151 6461 L 5356 6494 5525 5404 5305 5494 z "/>
  <path d="M 5525 5404 L 5750 5315 5943 4074 5706 4218 z "/>
  <path d="M 5943 4074 L 6173 4067 6002 6603 5797 6537 z "/>
  <path d="M 6002 6603 L 6211 6671 6291 6598 6083 6532 z "/>
  <path d="M 6291 6598 L 6503 6666 6581 6593 6370 6526 z "/>
  <path d="M 6581 6593 L 6796 6661 6872 6588 6658 6521 z "/>
  <path d="M 6872 6588 L 7089 6655 7163 6582 6947 6516 z "/>
  <path d="M 4477 6702 L 4674 6770 4765 6696 4569 6629 z "/>
  <path d="M 4765 6696 L 4963 6765 5053 6684 4854 6618 z "/>
  <path d="M 5053 6684 L 5255 6752 5356 6494 5151 6461 z "/>
  <path d="M 5356 6494 L 5566 6517 5750 5315 5525 5404 z "/>
  <path d="M 5750 5315 L 5969 5354 6173 4067 5943 4074 z "/>
  <path d="M 6173 4067 L 6432 3835 6211 6671 6002 6603 z "/>
  <path d="M 6211 6671 L 6424 6740 6503 6666 6291 6598 z "/>
  <path d="M 6503 6666 L 6718 6734 6796 6661 6581 6593 z "/>
  <path d="M 6796 6661 L 7014 6729 7089 6655 6872 6588 z "/>
  <path d="M 4674 6770 L 4873 6840 4963 6765 4765 6696 z "/>
  <path d="M 4963 6765 L 5166 6834 5255 6752 5053 6684 z "/>
  <path d="M 5255 6752 L 5460 6821 5566 6517 5356 6494 z "/>
  <path d="M 5566 6517 L 5779 6545 5969 5354 5750 5315 z "/>
  <path d="M 5969 5354 L 6193 5386 6432 3835 6173 4067 z "/>
  <path d="M 6432 3835 L 6724 3375 6424 6740 6211 6671 z "/>
  <path d="M 6424 6740 L 6640 6809 6718 6734 6503 6666 z "/>
  <path d="M 6718 6734 L 6937 6804 7014 6729 6796 6661 z "/>
  <path d="M 4873 6840 L 5076 6910 5166 6834 4963 6765 z "/>
  <path d="M 5166 6834 L 5372 6905 5460 6821 5255 6752 z "/>
  <path d="M 5460 6821 L 5668 6892 5779 6545 5566 6517 z "/>
  <path d="M 5779 6545 L 5985 6684 6193 5386 5969 5354 z "/>
  <path d="M 6193 5386 L 6430 5336 6724 3375 6432 3835 z "/>
  <path d="M 6724 3375 L 7024 2945 6640 6809 6424 6740 z "/>
  <path d="M 6640 6809 L 6860 6880 6937 6804 6718 6734 z "/>
  <path d="M 5076 6910 L 5283 6982 5372 6905 5166 6834 z "/>
  <path d="M 5372 6905 L 5581 6977 5668 6892 5460 6821 z "/>
  <path d="M 5668 6892 L 5881 6963 5985 6684 5779 6545 z "/>
  <path d="M 5985 6684 L 6203 6747 6430 5336 6193 5386 z "/>
  <path d="M 6430 5336 L 6669 5322 7024 2945 6724 3375 z "/>
  <path d="M 7024 2945 L 7365 2284 6860 6880 6640 6809 z "/>
  <path d="M 5283 6982 L 5493 7055 5581 6977 5372 6905 z "/>
  <path d="M 5581 6977 L 5794 7050 5881 6963 5668 6892 z "/>
  <path d="M 5881 6963 L 6097 7036 6203 6747 5985 6684 z "/>
  <path d="M 6203 6747 L 6427 6789 6669 5322 6430 5336 z "/>
  <path d="M 6669 5322 L 6916 5292 7365 2284 7024 2945 z "/>
  <path d="M 5493 7055 L 5707 7130 5794 7050 5581 6977 z "/>
  <path d="M 5794 7050 L 6011 7125 6097 7036 5881 6963 z "/>
  <path d="M 6097 7036 L 6316 7109 6427 6789 6203 6747 z "/>
  <path d="M 6427 6789 L 6652 6854 6916 5292 6669 5322 z "/>
  <path d="M 5707 7130 L 5924 7206 6011 7125 5794 7050 z "/>
  <path d="M 6011 7125 L 6231 7200 6316 7109 6097 7036 z "/>
  <path d="M 6316 7109 L 6540 7184 6652 6854 6427 6789 z "/>
  <path d="M 5924 7206 L 6146 7283 6231 7200 6011 7125 z "/>
  <path d="M 6231 7200 L 6456 7278 6540 7184 6316 7109 z "/>
  <path d="M 6146 7283 L 6371 7361 6456 7278 6231 7200 z "/>
 </g>
<desc>Back out 3D shift (resp)</desc>
<desc>Reset to original origin</desc>
</svg>
