<svg version="1.1" baseProfile="full" width="100%" height="100%" viewBox="0 0 10240 7680"  xmlns="http://www.w3.org/2000/svg" xmlns:xlink="http://www.w3.org/1999/xlink" xmlns:ev="http://www.w3.org/2001/xml-events" >
 <title>Expression Flattening (Mutation vs. GPU)</title>
<desc>Created by Causeway SVG engine - SharpPlot v3.03</desc>
<desc>Paint the paper =====</desc>
 <g fill="White">
  <rect x="0" y="0" width="10240" height="7680" />
 </g>
<desc>Border =====</desc>
<desc>Heading, subheading and footnotes =====</desc>
<desc>Heading</desc>
 <g fill="Navy" font-family="Times New Roman" font-size="290" text-anchor="middle" >
  <text x="5120" y="388" >Expression Flattening (Mutation vs. GPU)</text>
 </g>
<desc>Subheading</desc>
 <g fill="Navy" font-family="Times New Roman" font-size="250" text-anchor="middle" >
  <text x="5120" y="760" >Depth: 2</text>
 </g>
<desc>Region =====</desc>
<desc>for X-axis labels</desc>
 <g font-family="Times New Roman" font-size="190" text-anchor="middle" >
  <text x="740" y="7187" >0</text>
  <text x="1286" y="7187" >2</text>
  <text x="1832" y="7187" >4</text>
  <text x="2378" y="7187" >6</text>
  <text x="2924" y="7187" >8</text>
  <text x="3469" y="7187" >10</text>
  <text x="4015" y="7187" >12</text>
  <text x="4561" y="7187" >14</text>
  <text x="5107" y="7187" >16</text>
  <text x="5653" y="7187" >18</text>
  <text x="6199" y="7187" >20</text>
  <text x="6745" y="7187" >22</text>
  <text x="7291" y="7187" >24</text>
  <text x="7836" y="7187" >26</text>
  <text x="8382" y="7187" >28</text>
  <text x="8928" y="7187" >30</text>
  <text x="9474" y="7187" >32</text>
  <text x="10020" y="7187" >34</text>
 </g>
<desc>X-Caption: text and effects</desc>
 <g fill="Teal" font-family="Times New Roman" font-size="250" text-anchor="end" >
  <text x="10020" y="7537" >Branching Factor</text>
 </g>
<desc>Y-axis labels</desc>
 <g font-family="Times New Roman" font-size="190" text-anchor="end" >
  <text x="660" y="6990" >0</text>
  <text x="660" y="6657" >0.5</text>
  <text x="660" y="6323" >1</text>
  <text x="660" y="5990" >1.5</text>
  <text x="660" y="5657" >2</text>
  <text x="660" y="5323" >2.5</text>
  <text x="660" y="4990" >3</text>
  <text x="660" y="4657" >3.5</text>
  <text x="660" y="4323" >4</text>
  <text x="660" y="3990" >4.5</text>
  <text x="660" y="3657" >5</text>
  <text x="660" y="3323" >5.5</text>
  <text x="660" y="2990" >6</text>
  <text x="660" y="2657" >6.5</text>
  <text x="660" y="2323" >7</text>
  <text x="660" y="1990" >7.5</text>
  <text x="660" y="1657" >8</text>
  <text x="660" y="1323" >8.5</text>
  <text x="660" y="990" >9</text>
 </g>
<desc>Y-Captions: text and effects</desc>
 <g transform="translate(340 940) rotate(-90)" fill="Teal" font-family="Times New Roman" font-size="250" text-anchor="end" >
  <text>Speedup</text>
 </g>
<desc>X-Axis Ticks =====</desc>
<desc>X-Axis Grid</desc>
 <path fill="none" stroke="Silver" stroke-width="3"  d="M 740,6940 L 740,940 M 1286,6940 L 1286,940 M 1832,6940 L 1832,940 M 2378,6940 L 2378,940 M 2924,6940 L 2924,940 M 3469,6940 L 3469,940 M 4015,6940 L 4015,940 M 4561,6940 L 4561,940 M 5107,6940 L 5107,940 M 5653,6940 L 5653,940 M 6199,6940 L 6199,940 M 6745,6940 L 6745,940 M 7291,6940 L 7291,940 M 7836,6940 L 7836,940 M 8382,6940 L 8382,940 M 8928,6940 L 8928,940 M 9474,6940 L 9474,940 M 10020,6940 L 10020,940 " />
<desc>X-Axis tickmarks</desc>
 <path fill="none" stroke="Black" stroke-width="12"  d="M 740,6940 L 740,6997 M 1286,6940 L 1286,6997 M 1832,6940 L 1832,6997 M 2378,6940 L 2378,6997 M 2924,6940 L 2924,6997 M 3469,6940 L 3469,6997 M 4015,6940 L 4015,6997 M 4561,6940 L 4561,6997 M 5107,6940 L 5107,6997 M 5653,6940 L 5653,6997 M 6199,6940 L 6199,6997 M 6745,6940 L 6745,6997 M 7291,6940 L 7291,6997 M 7836,6940 L 7836,6997 M 8382,6940 L 8382,6997 M 8928,6940 L 8928,6997 M 9474,6940 L 9474,6997 M 10020,6940 L 10020,6997 " />
<desc>Y-Axis Ticks =====</desc>
<desc>Y grid</desc>
 <path fill="none" stroke="Silver" stroke-width="3"  d="M 740,6940 L 10020,6940 M 740,6607 L 10020,6607 M 740,6273 L 10020,6273 M 740,5940 L 10020,5940 M 740,5607 L 10020,5607 M 740,5273 L 10020,5273 M 740,4940 L 10020,4940 M 740,4607 L 10020,4607 M 740,4273 L 10020,4273 M 740,3940 L 10020,3940 M 740,3607 L 10020,3607 M 740,3273 L 10020,3273 M 740,2940 L 10020,2940 M 740,2607 L 10020,2607 M 740,2273 L 10020,2273 M 740,1940 L 10020,1940 M 740,1607 L 10020,1607 M 740,1273 L 10020,1273 M 740,940 L 10020,940 " />
<desc>Y-Axis tickmarks</desc>
 <path fill="none" stroke="Black" stroke-width="12"  d="M 740,6940 L 697,6940 M 740,6607 L 697,6607 M 740,6273 L 697,6273 M 740,5940 L 697,5940 M 740,5607 L 697,5607 M 740,5273 L 697,5273 M 740,4940 L 697,4940 M 740,4607 L 697,4607 M 740,4273 L 697,4273 M 740,3940 L 697,3940 M 740,3607 L 697,3607 M 740,3273 L 697,3273 M 740,2940 L 697,2940 M 740,2607 L 697,2607 M 740,2273 L 697,2273 M 740,1940 L 697,1940 M 740,1607 L 697,1607 M 740,1273 L 697,1273 M 740,940 L 697,940 " />
<desc>Start of X Bar Chart ==========</desc>
 <g stroke="Black" stroke-width="4" fill="Navy">
  <rect x="1186" y="6938" width="200" height="2" />
  <rect x="1459" y="6936" width="200" height="4" />
  <rect x="1732" y="6925" width="200" height="15" />
  <rect x="2005" y="6876" width="200" height="64" />
  <rect x="2278" y="6804" width="200" height="136" />
  <rect x="2551" y="6707" width="200" height="233" />
  <rect x="2824" y="6490" width="200" height="450" />
  <rect x="3096" y="6370" width="200" height="570" />
  <rect x="3369" y="6192" width="200" height="748" />
  <rect x="3642" y="5920" width="200" height="1020" />
  <rect x="3915" y="5681" width="200" height="1259" />
  <rect x="4188" y="5253" width="200" height="1687" />
  <rect x="4461" y="4906" width="200" height="2034" />
  <rect x="4734" y="4522" width="200" height="2418" />
  <rect x="5007" y="4417" width="200" height="2523" />
  <rect x="5280" y="4292" width="200" height="2648" />
  <rect x="5553" y="4237" width="200" height="2703" />
  <rect x="5826" y="4116" width="200" height="2824" />
  <rect x="6099" y="4123" width="200" height="2817" />
  <rect x="6372" y="4054" width="200" height="2886" />
  <rect x="6645" y="4029" width="200" height="2911" />
  <rect x="6918" y="3948" width="200" height="2992" />
  <rect x="7191" y="3889" width="200" height="3051" />
  <rect x="7464" y="3825" width="200" height="3115" />
  <rect x="7736" y="3715" width="200" height="3225" />
  <rect x="8009" y="3468" width="200" height="3472" />
  <rect x="8282" y="3396" width="200" height="3544" />
  <rect x="8555" y="3047" width="200" height="3893" />
  <rect x="8828" y="2437" width="200" height="4503" />
  <rect x="9101" y="1885" width="200" height="5055" />
  <rect x="9374" y="1104" width="200" height="5836" />
 </g>
<desc>Axes =====</desc>
 <path fill="none" stroke="Black" stroke-width="20"  d="M 740,6997 L 740,883 M 683,6940 L 10077,6940 " />
<desc>Reset to original origin</desc>
</svg>
